<svg xmlns="http://www.w3.org/2000/svg" width="32" height="32"><g style="display:inline;opacity:1"><path d="M17.196 18.38s.508 2.368 1.015 3.214c.507.845 1.767 1.729 2.537 1.898.132-.94.075-2.725-.413-3.57-.489-.847-1.466-1.749-2.105-2.18M14.264 17.76c-1.127.752-1.823 1.278-2.161 2.199-.338.92-.507 2.762-.32 3.495 1.053-.338 2.218-1.597 2.519-2.048.3-.451.752-2.425.695-3.195M12.554 15.298c-.568.06-2.059-.073-3.391.407-1.179.424-2.217 1.396-2.623 2.393.77.254 2.346.256 3.639-.033 1.387-.31 2.478-.943 2.77-1.527" style="opacity:1;fill:purple;fill-opacity:1;stroke:none;stroke-width:1px;stroke-linecap:butt;stroke-linejoin:miter;stroke-opacity:1"/><path d="M12.986 12.836s-1.973-2.105-3.12-2.274c-1.146-.17-2.95-.056-3.495.188.545.977 1.88 2.417 3.045 2.631 1.127.207 2.95.451 3.12.338M14.32 11.314s-1.277-1.504-2.104-2.707c-.827-1.202-.583-2.368-.508-3.326.884.395 2.256 1.41 2.725 2.35.47.939.677 2.705.696 3.213M17.403 11.07c.3-2.162.676-3.647 1.033-4.135.358-.489 1.654-1.353 2.312-1.56.32.677 0 2.556-.244 2.988-.245.432-2.068 2.838-2.425 2.97M19.545 13.043s1.992-1.898 2.857-2.218c.864-.32 3.326-.413 3.608-.019-.338.846-1.86 2.068-2.744 2.293-.883.226-2.875.489-3.382.47M19.846 15.129s3.045.32 4.04.79c.997.469 1.73 1.897 2.05 2.236-.94.206-2.764.3-3.196 0-.432-.301-3.12-2.105-3.12-2.105" style="fill:purple;fill-opacity:1;stroke:none;stroke-width:1px;stroke-linecap:butt;stroke-linejoin:miter;stroke-opacity:1"/></g><g style="display:inline"><path d="m14.884 18.042-.526 2.293.64 2.612 1.258 2.01 1.41-2.348.395-2.33-.752-2.124-1.128.319zM18.117 17.779l1.109-.996.376-.884 2.199 1.015 1.315 1.522.996 2.744-2.105-.357-2.067-1.015zM19.658 13.343l2.744-.244 2.462.62 1.616.94-1.992 1.071-2.293.526-2.462-.488.188-1.184zM17.967 11.126l1.522-2.049 2.086-1.296 2.5-.602-.809 2.424-1.465 2.124-2.237 1.466-.695-1.24zM15.072 11.05l-.77-2.255.545-2.913L16.2 3.89l1.146 1.617.677 2.33-.32 3.214-1.447-.264zM14.565 11.22l-1.184-1.86-2.594-1.58-2.443-.582 1.015 2.875 1.86 2.218 1.655.714.714-1.09zM12.704 13.325l-2.837-.226-2.744.808-1.184.714 2.537 1.391 2.65.263 1.654-.507-.264-1.203zM12.76 15.956l-2.31 1.09-1.937 2.97-.15 1.22 2.688-.695 2.368-1.466.94-1.296-1.09-.865z" style="fill:purple;fill-opacity:1;stroke:none;stroke-width:1px;stroke-linecap:butt;stroke-linejoin:miter;stroke-opacity:1"/></g><g style="display:inline;opacity:1"><path d="M15.75 26.461h1v5h-1z" style="display:inline;opacity:1;fill:#e900e9;fill-opacity:1;stroke:none;stroke-width:8.00001;stroke-linecap:round"/><path d="M11.668 24.439c2.804 1.62 3.202 4.81 3.202 4.81l-.584.12s-.452-2.764-2.618-4.93zM20.903 24.439c-2.804 1.62-3.203 4.81-3.203 4.81l.585.12s.452-2.764 2.618-4.93zM12.31 26.292c-2.105-3.42-5.394-3.289-7.31-2.913 2.443 3.535 4.233 3.855 8.08 4.078-1.184-1.334-3.815-1.447-4.454-2.5 2.161.057 3.233.903 3.684 1.335zM20.27 26.292c2.105-3.42 5.394-3.289 7.311-2.913-2.444 3.535-4.234 3.855-8.081 4.078 1.184-1.334 3.815-1.447 4.454-2.5-2.161.057-3.232.903-3.683 1.335z" style="opacity:1;fill:#e900e9;fill-opacity:1;stroke:none;stroke-width:1px;stroke-linecap:butt;stroke-linejoin:miter;stroke-opacity:1"/><ellipse cx="3.74" cy="21.73" rx=".273" ry=".277" style="opacity:1;fill:#e900e9;fill-opacity:1;stroke:none;stroke-width:8;stroke-linecap:round"/><ellipse cx="5.662" cy="20.617" rx=".287" ry=".301" style="opacity:1;fill:#e900e9;fill-opacity:1;stroke:none;stroke-width:8;stroke-linecap:round"/><path d="M4.68 18.184a.601.597 0 0 0-.602.595.601.597 0 0 0 .602.598.601.597 0 0 0 .601-.598.601.597 0 0 0-.601-.595Zm0 .28a.282.315 0 0 1 .28.315.282.315 0 0 1-.28.315.282.315 0 0 1-.282-.315.282.315 0 0 1 .282-.314z" style="opacity:1;fill:#e900e9;fill-opacity:1;stroke:none;stroke-width:8;stroke-linecap:round"/><ellipse cx="5.605" cy="9.167" rx=".277" ry=".296" style="opacity:1;fill:#e900e9;fill-opacity:1;stroke:none;stroke-width:8;stroke-linecap:round"/><ellipse cx="9.88" cy="4.455" rx=".292" ry=".316" style="opacity:1;fill:#e900e9;fill-opacity:1;stroke:none;stroke-width:8;stroke-linecap:round"/><ellipse cx="12.987" cy="4.425" rx=".289" ry=".279" style="opacity:1;fill:#e900e9;fill-opacity:1;stroke:none;stroke-width:8;stroke-linecap:round"/><ellipse cx="19.468" cy="4.432" rx=".272" ry=".266" style="opacity:1;fill:#e900e9;fill-opacity:1;stroke:none;stroke-width:8;stroke-linecap:round"/><ellipse cx="26.704" cy="8.392" rx=".326" ry=".346" style="opacity:1;fill:#e900e9;fill-opacity:1;stroke:none;stroke-width:8;stroke-linecap:round"/><path d="M27.98 12.426a.777.804 0 0 0-.777.803.777.804 0 0 0 .777.804.777.804 0 0 0 .778-.804.777.804 0 0 0-.778-.803zm0 .576a.22.227 0 0 1 .22.227.22.227 0 0 1-.22.226.22.227 0 0 1-.218-.226.22.227 0 0 1 .218-.227z" style="opacity:1;fill:#e900e9;fill-opacity:1;stroke:none;stroke-width:8;stroke-linecap:round"/><ellipse cx="27.203" cy="16.193" rx=".173" ry=".179" style="opacity:1;fill:#e900e9;fill-opacity:1;stroke:none;stroke-width:8;stroke-linecap:round"/><path d="M27.748 18.406a1.116 1.11 0 0 0-1.117 1.11 1.116 1.11 0 0 0 1.117 1.109 1.116 1.11 0 0 0 1.115-1.11 1.116 1.11 0 0 0-1.115-1.109zm0 .448a.664.66 0 0 1 .664.662.664.66 0 0 1-.664.66.664.66 0 0 1-.664-.66.664.66 0 0 1 .664-.662z" style="opacity:1;fill:#e900e9;fill-opacity:1;stroke:none;stroke-width:8;stroke-linecap:round"/><ellipse cx="26.14" cy="21.508" rx=".292" ry=".326" style="opacity:1;fill:#e900e9;fill-opacity:1;stroke:none;stroke-width:8;stroke-linecap:round"/><path d="M16.2 3.102c-.696.751-1.748 3.118-1.917 4.002-.169.883-.093 2.405.508 4.021.174-.116.441-.25.647-.297-.029-.095-.44-1.168-.422-2.465.018-1.353.751-3.325 1.183-4.058.959 1.372 1.317 3.325 1.223 4.058-.08.616-.38 2.016-.543 2.575.161.032.324.07.486.113.188-.282.733-1.748.846-3.139.113-1.39-1.11-3.664-2.012-4.81zM14.659 10.975c-1.034-2.405-4.21-4.19-6.803-4.21.845 2.838 1.503 4.135 2.293 4.85.789.714 2.123 1.616 2.48 1.465.357-.15.414-.282.113-.357-.3-.075-1.203-.639-1.86-1.165-.658-.526-1.88-3.232-2.18-3.965 1.634.281 3.194.827 4.134 1.766.94.94 1.39 1.635 1.41 1.823.093.038.413-.207.413-.207z" style="opacity:1;fill:#e900e9;fill-opacity:1;stroke:none;stroke-width:1px;stroke-linecap:butt;stroke-linejoin:miter;stroke-opacity:1"/><path d="M10.238 12.895c-.247.003-.474.012-.672.017-.789.019-3.157.92-4.171 1.71 1.09.882 3.118 1.785 4.189 1.804 1.071.019 2.839-.264 3.064-.621a2.438 2.438 0 0 1-.156-.496c-.929.452-1.647.59-2.418.572-.808-.019-1.786-.15-3.515-1.24 1.672-1.053 3.496-1.372 4.341-1.334.69.03 1.366.111 1.623.242.038-.12.085-.234.143-.338-.775-.296-1.687-.327-2.428-.316z" style="opacity:1;fill:#e900e9;fill-opacity:1;stroke:none;stroke-width:1px;stroke-linecap:butt;stroke-linejoin:miter;stroke-opacity:1"/><path d="M12.383 15.865c-2.182.065-4.451 3.42-4.451 5.766 2.386-.226 5.712-1.541 6.502-3.59a2.54 2.54 0 0 1-.407-.248c-.285.9-3.116 2.918-5.195 3.03-.018-1.83 2.436-4.258 3.93-4.766a3.25 3.25 0 0 1-.057-.176 2.116 2.116 0 0 0-.322-.016zM14.734 18.21c-.357.32-.583 1.504-.658 2.481-.075.978.977 3.722 2.18 4.98 1.221-1.521 1.955-3.72 1.918-4.81-.038-1.09-.113-1.692-.508-2.65-.11.11-.345.175-.635.209.193.52.408 1.793.408 2.402 0 .696-.263 2.07-1.24 3.63-.733-.809-1.221-3.027-1.183-3.403.037-.37-.052-.89.34-2.682-.293-.044-.525-.1-.622-.156zM19.809 15.824a2.243 2.243 0 0 1-.145.42c1.762.357 3.866 2.803 3.979 4.654-2.182-.462-4.562-1.688-5.391-2.98a2.85 2.85 0 0 1-.361.2c.45 1.258 3.89 3.513 6.634 3.57-.32-2.8-2.292-5.62-4.716-5.864z" style="opacity:1;fill:#e900e9;fill-opacity:1;stroke:none;stroke-width:1px;stroke-linecap:butt;stroke-linejoin:miter;stroke-opacity:1"/><path d="M22.516 12.78c-.956-.06-2.551.082-2.784.43.061.117.112.236.155.352.296-.153.955-.255 1.82-.255.977 0 2.65.262 4.191 1.334-.413.507-2.707 1.257-3.365 1.257-.622 0-1.663-.033-2.633-.306a1.983 1.983 0 0 1-.129.306c.47.188 2.124.546 2.725.565.601.019 2.555-.131 4.604-1.822-1.26-.884-3.59-1.8-4.584-1.862z" style="opacity:1;fill:#e900e9;fill-opacity:1;stroke:none;stroke-width:1px;stroke-linecap:butt;stroke-linejoin:miter;stroke-opacity:1"/><path d="M24.334 6.86c-1.426.022-3.744.943-4.545 1.617-.827.695-1.334 1.126-1.842 2.61.133.062.268.15.4.255.331-.808.737-1.572 1.385-2.076.677-.527 2.368-1.504 3.928-1.692-.432 1.579-1.635 3.74-2.33 4.192-.617.4-1.308 1.05-1.719 1.152.076.136.143.268.198.389.413-.076 1.86-.959 2.78-1.993.922-1.033 1.466-2.556 1.88-4.455h-.135z" style="opacity:1;fill:#e900e9;fill-opacity:1;stroke:none;stroke-width:1px;stroke-linecap:butt;stroke-linejoin:miter;stroke-opacity:1"/></g><g style="display:inline"><path d="M16 0A16 16 0 0 0 0 16a16 16 0 0 0 16 16 16 16 0 0 0 16-16A16 16 0 0 0 16 0Zm0 1.17A14.83 14.83 0 0 1 30.83 16 14.83 14.83 0 0 1 16 30.83 14.83 14.83 0 0 1 1.17 16 14.83 14.83 0 0 1 16 1.17Z" style="opacity:1;fill:#e900e9;fill-opacity:1;stroke:none;stroke-width:8;stroke-linecap:round"/><path d="M16.219 10.58a3.928 4.04 0 0 0-3.928 4.041 3.928 4.04 0 0 0 3.928 4.041 3.928 4.04 0 0 0 3.927-4.04 3.928 4.04 0 0 0-3.927-4.042zm0 .504a3.44 3.538 0 0 1 3.44 3.537 3.44 3.538 0 0 1-3.44 3.54 3.44 3.538 0 0 1-3.44-3.54 3.44 3.538 0 0 1 3.44-3.537z" style="opacity:1;fill:#e900e9;fill-opacity:1;stroke:none;stroke-width:8;stroke-linecap:round"/><path d="M16.229 11.766a2.885 2.904 0 0 0-2.885 2.902 2.885 2.904 0 0 0 2.885 2.904 2.885 2.904 0 0 0 2.884-2.904 2.885 2.904 0 0 0-2.884-2.902zm0 .394a2.493 2.509 0 0 1 2.492 2.508 2.493 2.509 0 0 1-2.492 2.51 2.493 2.509 0 0 1-2.493-2.51 2.493 2.509 0 0 1 2.493-2.508z" style="opacity:1;fill:#e900e9;fill-opacity:1;stroke:none;stroke-width:8;stroke-linecap:round"/><path d="M16.232 12.492a2.226 2.206 0 0 0-2.226 2.205 2.226 2.206 0 0 0 2.226 2.207 2.226 2.206 0 0 0 2.227-2.207 2.226 2.206 0 0 0-2.227-2.205zm0 .371a1.85 1.834 0 0 1 1.852 1.834 1.85 1.834 0 0 1-1.852 1.834 1.85 1.834 0 0 1-1.85-1.834 1.85 1.834 0 0 1 1.85-1.834z" style="opacity:1;fill:#e900e9;fill-opacity:1;stroke:none;stroke-width:8;stroke-linecap:round"/><path d="M16.213 13.184a1.528 1.535 0 0 0-1.53 1.533 1.528 1.535 0 0 0 1.53 1.535 1.528 1.535 0 0 0 1.527-1.535 1.528 1.535 0 0 0-1.527-1.533zm0 .332a1.196 1.201 0 0 1 1.195 1.2 1.196 1.201 0 0 1-1.195 1.202 1.196 1.201 0 0 1-1.195-1.201 1.196 1.201 0 0 1 1.195-1.201z" style="opacity:1;fill:#e900e9;fill-opacity:1;stroke:none;stroke-width:8;stroke-linecap:round"/><path d="M16.227 13.807a.85.884 0 0 0-.852.884.85.884 0 0 0 .852.883.85.884 0 0 0 .85-.883.85.884 0 0 0-.85-.884zm0 .345a.518.539 0 0 1 .517.54.518.539 0 0 1-.517.538.518.539 0 0 1-.52-.539.518.539 0 0 1 .52-.539z" style="opacity:1;fill:#e900e9;fill-opacity:1;stroke:none;stroke-width:8;stroke-linecap:round"/><ellipse cx="16.213" cy="14.718" rx=".199" ry=".233" style="opacity:1;fill:#e900e9;fill-opacity:1;stroke:none;stroke-width:8;stroke-linecap:round"/><path d="m15.975 20.673.244-.827.225.846-.188 1.033zM19.808 17.741l1.147.3.808 1.053-1.222-.526zM20.88 14.565l1.033-.282 1.184.282-1.127.263zM19.696 11.163l.563-1.033 1.072-.47-.658.977zM15.993 8.513l.226-1.07.207 1.108-.207.902ZM12.554 11.295l-.977-.564L10.9 9.66l1.015.695ZM9.716 14.621l1.123-.225.907.263-.864.15zM11.162 18.867l.614-.902.892-.542-.545.854z" style="fill:#e900e9;fill-opacity:1;stroke:none;stroke-width:1px;stroke-linecap:butt;stroke-linejoin:miter;stroke-opacity:1"/></g></svg>