<?xml version="1.0" encoding="UTF-8" standalone="no"?>
<!-- Created with Inkscape (http://www.inkscape.org/) -->

<svg
   version="1.1"
   id="svg1"
   width="32"
   height="32"
   viewBox="0 0 32 32"
   sodipodi:docname="dark pupple theme icon.svg"
   inkscape:version="1.4 (e7c3feb100, 2024-10-09)"
   inkscape:export-filename="dark pupple theme icon x4.png"
   inkscape:export-xdpi="384"
   inkscape:export-ydpi="384"
   xmlns:inkscape="http://www.inkscape.org/namespaces/inkscape"
   xmlns:sodipodi="http://sodipodi.sourceforge.net/DTD/sodipodi-0.dtd"
   xmlns="http://www.w3.org/2000/svg"
   xmlns:svg="http://www.w3.org/2000/svg">
  <defs
     id="defs1" />
  <sodipodi:namedview
     id="namedview1"
     pagecolor="#ffffff"
     bordercolor="#111111"
     borderopacity="1"
     inkscape:showpageshadow="0"
     inkscape:pageopacity="0"
     inkscape:pagecheckerboard="1"
     inkscape:deskcolor="#d1d1d1"
     showgrid="false"
     inkscape:zoom="9.40625"
     inkscape:cx="18.870432"
     inkscape:cy="16.850498"
     inkscape:window-width="1440"
     inkscape:window-height="834"
     inkscape:window-x="0"
     inkscape:window-y="29"
     inkscape:window-maximized="1"
     inkscape:current-layer="svg1" />
  <g
     inkscape:groupmode="layer"
     id="layer1"
     inkscape:label="Layer 3"
     style="display:inline;opacity:1">
    <path
       style="opacity:1;fill:#800080;fill-opacity:1;stroke:none;stroke-width:1px;stroke-linecap:butt;stroke-linejoin:miter;stroke-opacity:1"
       d="m 17.196085,18.380078 c 0,0 0.507426,2.367985 1.014851,3.213695 0.507426,0.845709 1.766592,1.729005 2.537127,1.898147 0.131555,-0.939677 0.07518,-2.725063 -0.413457,-3.570772 -0.488632,-0.845709 -1.465896,-1.747799 -2.104876,-2.18005"
       id="path17"
       sodipodi:nodetypes="cscsc" />
    <path
       style="opacity:1;fill:#800080;fill-opacity:1;stroke:none;stroke-width:1px;stroke-linecap:butt;stroke-linejoin:miter;stroke-opacity:1"
       d="m 14.264294,17.759891 c -1.127612,0.751742 -1.822973,1.277961 -2.161257,2.198844 -0.338284,0.920883 -0.507425,2.76265 -0.31949,3.495598 1.052438,-0.338284 2.217637,-1.597451 2.518334,-2.048496 0.300696,-0.451045 0.751741,-2.424365 0.695361,-3.1949"
       id="path19"
       sodipodi:nodetypes="cscsc" />
    <path
       style="opacity:1;fill:#800080;fill-opacity:1;stroke:none;stroke-width:1px;stroke-linecap:butt;stroke-linejoin:miter;stroke-opacity:1"
       d="m 12.554082,15.297938 c -0.568465,0.05984 -2.058879,-0.0728 -3.3912937,0.406773 -1.1784285,0.424146 -2.216896,1.39675 -2.6226379,2.393464 0.7705615,0.253832 2.3456355,0.256174 3.6385006,-0.03326 1.387374,-0.310587 2.478252,-0.942921 2.770095,-1.526608"
       id="path20"
       sodipodi:nodetypes="cscsc" />
    <path
       style="fill:#800080;fill-opacity:1;stroke:none;stroke-width:1px;stroke-linecap:butt;stroke-linejoin:miter;stroke-opacity:1"
       d="m 12.986333,12.835985 c 0,0 -1.973321,-2.104876 -3.1197267,-2.274018 -1.1464057,-0.169142 -2.9505852,-0.05638 -3.4955977,0.187935 0.5450125,0.977264 1.8799697,2.417589 3.0445528,2.631095 1.1276126,0.206729 2.9505846,0.451046 3.1197266,0.338284"
       id="path21"
       sodipodi:nodetypes="cscsc" />
    <path
       style="fill:#800080;fill-opacity:1;stroke:none;stroke-width:1px;stroke-linecap:butt;stroke-linejoin:miter;stroke-opacity:1"
       d="m 14.320674,11.313709 c 0,0 -1.27796,-1.5034834 -2.104876,-2.7062696 -0.826915,-1.2027863 -0.582599,-2.3679855 -0.507425,-3.3264559 0.883296,0.3946643 2.255224,1.4095152 2.725062,2.349192 0.469839,0.9396768 0.676568,2.7062695 0.695361,3.2136945"
       id="path22" />
    <path
       style="fill:#800080;fill-opacity:1;stroke:none;stroke-width:1px;stroke-linecap:butt;stroke-linejoin:miter;stroke-opacity:1"
       d="m 17.402814,11.069393 c 0.300697,-2.1612571 0.676567,-3.6459464 1.033645,-4.1345783 0.357077,-0.4886319 1.653831,-1.3531346 2.311604,-1.5598635 0.319491,0.6765673 0,2.5559209 -0.244316,2.9881722 -0.244315,0.4322513 -2.067288,2.8378236 -2.424366,2.9693786"
       id="path23" />
    <path
       style="fill:#800080;fill-opacity:1;stroke:none;stroke-width:1px;stroke-linecap:butt;stroke-linejoin:miter;stroke-opacity:1"
       d="m 19.545277,13.042714 c 0,0 1.992115,-1.898147 2.856618,-2.217637 0.864502,-0.319491 3.326455,-0.413458 3.608358,-0.01879 -0.338283,0.845709 -1.86056,2.067289 -2.743856,2.292811 -0.883296,0.225523 -2.875411,0.488632 -3.382836,0.469839"
       id="path24" />
    <path
       style="fill:#800080;fill-opacity:1;stroke:none;stroke-width:1px;stroke-linecap:butt;stroke-linejoin:miter;stroke-opacity:1"
       d="m 19.845974,15.128796 c 0,0 3.044553,0.31949 4.04061,0.789329 0.996057,0.469838 1.729005,1.898147 2.048495,2.236431 -0.939676,0.206728 -2.762649,0.300696 -3.194901,0 -0.432251,-0.300697 -3.119727,-2.104876 -3.119727,-2.104876"
       id="path25" />
  </g>
  <g
     inkscape:groupmode="layer"
     id="layer3"
     inkscape:label="Layer 4"
     style="display:inline"
     sodipodi:insensitive="true">
    <path
       style="fill:#800080;fill-opacity:1;stroke:none;stroke-width:1px;stroke-linecap:butt;stroke-linejoin:miter;stroke-opacity:1"
       d="m 14.88448,18.041794 -0.526219,2.292812 0.638981,2.612301 1.259166,2.010908 1.409516,-2.349192 0.394664,-2.330398 -0.751742,-2.123669 -1.127612,0.31949 z"
       id="path26" />
    <path
       style="fill:#800080;fill-opacity:1;stroke:none;stroke-width:1px;stroke-linecap:butt;stroke-linejoin:miter;stroke-opacity:1"
       d="m 18.116968,17.778685 1.108819,-0.996058 0.375871,-0.883296 2.198843,1.014851 1.315548,1.522277 0.996057,2.743856 -2.104876,-0.357077 -2.067289,-1.014851 z"
       id="path27" />
    <path
       style="fill:#800080;fill-opacity:1;stroke:none;stroke-width:1px;stroke-linecap:butt;stroke-linejoin:miter;stroke-opacity:1"
       d="m 19.658038,13.34341 2.743857,-0.244316 2.461953,0.620187 1.616244,0.939677 -1.992115,1.071231 -2.292811,0.526219 -2.461953,-0.488632 0.187935,-1.183992 z"
       id="path28" />
    <path
       style="fill:#800080;fill-opacity:1;stroke:none;stroke-width:1px;stroke-linecap:butt;stroke-linejoin:miter;stroke-opacity:1"
       d="m 17.96662,11.125773 1.522277,-2.0484952 2.086082,-1.296754 2.49954,-0.6013932 -0.808122,2.4243662 -1.465896,2.1236692 -2.23643,1.465896 -0.695361,-1.240373 z"
       id="path29" />
    <path
       style="fill:#800080;fill-opacity:1;stroke:none;stroke-width:1px;stroke-linecap:butt;stroke-linejoin:miter;stroke-opacity:1"
       d="m 15.072416,11.050599 -0.770535,-2.2552243 0.545012,-2.912998 1.353135,-1.9921148 1.146405,1.6162441 0.676568,2.3303984 -0.31949,3.2136946 -1.447103,-0.263109 z"
       id="path30" />
    <path
       style="fill:#800080;fill-opacity:1;stroke:none;stroke-width:1px;stroke-linecap:butt;stroke-linejoin:miter;stroke-opacity:1"
       d="M 14.56499,11.219741 13.380997,9.3591808 10.78749,7.7805238 8.3443299,7.1979242 l 1.0148509,2.8754108 1.8605602,2.217637 1.653831,0.714155 0.714154,-1.090025 z"
       id="path31" />
    <path
       style="fill:#800080;fill-opacity:1;stroke:none;stroke-width:1px;stroke-linecap:butt;stroke-linejoin:miter;stroke-opacity:1"
       d="M 12.70443,13.324617 9.8666063,13.099094 7.12275,13.907216 l -1.1839927,0.714155 2.5371273,1.390721 2.6498884,0.26311 1.653831,-0.507426 -0.263109,-1.202786 z"
       id="path32" />
    <path
       style="fill:#800080;fill-opacity:1;stroke:none;stroke-width:1px;stroke-linecap:butt;stroke-linejoin:miter;stroke-opacity:1"
       d="m 12.760811,15.955712 -2.311605,1.090025 -1.9357343,2.969379 -0.1503483,1.221579 2.6874756,-0.69536 2.367986,-1.465896 0.939676,-1.296754 -1.090025,-0.864503 z"
       id="path33" />
  </g>
  <g
     inkscape:groupmode="layer"
     id="layer4"
     inkscape:label="Layer 2"
     style="display:inline;opacity:1"
     sodipodi:insensitive="true">
    <rect
       style="display:inline;opacity:1;fill:#e900e9;fill-opacity:1;stroke:none;stroke-width:8.00001;stroke-linecap:round"
       id="rect1"
       width="1"
       height="5"
       x="15.75"
       y="26.461298" />
    <path
       style="opacity:1;fill:#e900e9;fill-opacity:1;stroke:none;stroke-width:1px;stroke-linecap:butt;stroke-linejoin:miter;stroke-opacity:1"
       d="m 11.667774,24.438538 c 2.803986,1.621263 3.202658,4.810632 3.202658,4.810632 l -0.584718,0.119601 c 0,0 -0.451827,-2.764119 -2.61794,-4.930233 z"
       id="path2"
       sodipodi:nodetypes="cccc" />
    <path
       style="opacity:1;fill:#e900e9;fill-opacity:1;stroke:none;stroke-width:1px;stroke-linecap:butt;stroke-linejoin:miter;stroke-opacity:1"
       d="M 20.902658,24.438538 C 18.098672,26.059801 17.7,29.24917 17.7,29.24917 l 0.584718,0.119601 c 0,0 0.451827,-2.764119 2.61794,-4.930233 z"
       id="path3"
       sodipodi:nodetypes="cccc" />
    <path
       style="opacity:1;fill:#e900e9;fill-opacity:1;stroke:none;stroke-width:1px;stroke-linecap:butt;stroke-linejoin:miter;stroke-opacity:1"
       d="M 12.309766,26.292157 C 10.20489,22.871733 6.9160212,23.003288 4.9990805,23.379159 c 2.4440657,3.534493 4.2343123,3.855178 8.0812205,4.078197 -1.183993,-1.334341 -3.8150878,-1.447103 -4.4540681,-2.499541 2.1612561,0.05638 3.2324881,0.90209 3.6835331,1.334342 z"
       id="path4"
       sodipodi:nodetypes="ccccc" />
    <path
       style="opacity:1;fill:#e900e9;fill-opacity:1;stroke:none;stroke-width:1px;stroke-linecap:butt;stroke-linejoin:miter;stroke-opacity:1"
       d="m 20.270535,26.292157 c 2.104876,-3.420424 5.393745,-3.288869 7.310685,-2.912998 -2.444066,3.534493 -4.234312,3.855178 -8.08122,4.078197 1.183993,-1.334341 3.815088,-1.447103 4.454068,-2.499541 -2.161256,0.05638 -3.232488,0.90209 -3.683533,1.334342 z"
       id="path5"
       sodipodi:nodetypes="ccccc" />
    <ellipse
       style="opacity:1;fill:#e900e9;fill-opacity:1;stroke:none;stroke-width:8;stroke-linecap:round"
       id="path6"
       cx="3.7399137"
       cy="21.730026"
       rx="0.27250627"
       ry="0.27720466" />
    <ellipse
       style="opacity:1;fill:#e900e9;fill-opacity:1;stroke:none;stroke-width:8;stroke-linecap:round"
       id="path7"
       cx="5.6615524"
       cy="20.616508"
       rx="0.28660142"
       ry="0.30069658" />
    <path
       id="path8"
       style="opacity:1;fill:#e900e9;fill-opacity:1;stroke:none;stroke-width:8;stroke-linecap:round"
       d="M 4.6796875,18.183594 A 0.60139316,0.59669477 0 0 0 4.078125,18.779297 0.60139316,0.59669477 0 0 0 4.6796875,19.376953 0.60139316,0.59669477 0 0 0 5.28125,18.779297 0.60139316,0.59669477 0 0 0 4.6796875,18.183594 Z m 0,0.28125 a 0.28190306,0.31479174 0 0 1 0.28125,0.314453 0.28190306,0.31479174 0 0 1 -0.28125,0.314453 0.28190306,0.31479174 0 0 1 -0.28125,-0.314453 0.28190306,0.31479174 0 0 1 0.28125,-0.314453 z" />
    <ellipse
       style="opacity:1;fill:#e900e9;fill-opacity:1;stroke:none;stroke-width:8;stroke-linecap:round"
       id="path9"
       cx="5.6051722"
       cy="9.1665478"
       rx="0.27720466"
       ry="0.29599819" />
    <ellipse
       style="opacity:1;fill:#e900e9;fill-opacity:1;stroke:none;stroke-width:8;stroke-linecap:round"
       id="path10"
       cx="9.8803988"
       cy="4.4551497"
       rx="0.29235882"
       ry="0.31561461" />
    <ellipse
       style="opacity:1;fill:#e900e9;fill-opacity:1;stroke:none;stroke-width:8;stroke-linecap:round"
       id="path11"
       cx="12.986711"
       cy="4.4252491"
       rx="0.28903654"
       ry="0.27906978" />
    <ellipse
       style="opacity:1;fill:#e900e9;fill-opacity:1;stroke:none;stroke-width:8;stroke-linecap:round"
       id="path12"
       cx="19.468439"
       cy="4.4318938"
       rx="0.27242526"
       ry="0.26578072" />
    <ellipse
       style="opacity:1;fill:#e900e9;fill-opacity:1;stroke:none;stroke-width:8;stroke-linecap:round"
       id="path13"
       cx="26.704319"
       cy="8.3920269"
       rx="0.3255814"
       ry="0.34551495" />
    <path
       id="path14"
       style="opacity:1;fill:#e900e9;fill-opacity:1;stroke:none;stroke-width:8;stroke-linecap:round"
       d="m 27.980469,12.425781 a 0.77740866,0.80398673 0 0 0 -0.777344,0.802735 0.77740866,0.80398673 0 0 0 0.777344,0.804687 0.77740866,0.80398673 0 0 0 0.777343,-0.804687 0.77740866,0.80398673 0 0 0 -0.777343,-0.802735 z m 0,0.576172 a 0.21926913,0.2267655 0 0 1 0.21875,0.226563 0.21926913,0.2267655 0 0 1 -0.21875,0.226562 0.21926913,0.2267655 0 0 1 -0.21875,-0.226562 0.21926913,0.2267655 0 0 1 0.21875,-0.226563 z" />
    <ellipse
       style="opacity:1;fill:#e900e9;fill-opacity:1;stroke:none;stroke-width:8;stroke-linecap:round"
       id="path15"
       cx="27.202658"
       cy="16.192692"
       rx="0.17275748"
       ry="0.17940199" />
    <path
       id="path16"
       style="opacity:1;fill:#e900e9;fill-opacity:1;stroke:none;stroke-width:8;stroke-linecap:round"
       d="m 27.748047,18.40625 a 1.1162791,1.1096345 0 0 0 -1.117188,1.109375 1.1162791,1.1096345 0 0 0 1.117188,1.109375 1.1162791,1.1096345 0 0 0 1.115234,-1.109375 1.1162791,1.1096345 0 0 0 -1.115234,-1.109375 z m 0,0.447266 a 0.6644519,0.66049677 0 0 1 0.664062,0.662109 0.6644519,0.66049677 0 0 1 -0.664062,0.660156 0.6644519,0.66049677 0 0 1 -0.664063,-0.660156 0.6644519,0.66049677 0 0 1 0.664063,-0.662109 z" />
    <ellipse
       style="opacity:1;fill:#e900e9;fill-opacity:1;stroke:none;stroke-width:8;stroke-linecap:round"
       id="ellipse17"
       cx="26.139534"
       cy="21.508307"
       rx="0.29235882"
       ry="0.3255814" />
    <path
       id="path34"
       style="opacity:1;fill:#e900e9;fill-opacity:1;stroke:none;stroke-width:1px;stroke-linecap:butt;stroke-linejoin:miter;stroke-opacity:1"
       d="m 16.199219,3.1015625 c -0.695361,0.7517414 -1.746874,3.1186569 -1.916016,4.0019531 -0.169142,0.8832962 -0.09358,2.4052405 0.507813,4.0214844 0.174048,-0.116031 0.441199,-0.249696 0.647439,-0.296615 -0.02896,-0.09507 -0.440833,-1.1688383 -0.42283,-2.4651038 0.01879,-1.3531345 0.751342,-3.3256458 1.183594,-4.0585937 0.95847,1.3719281 1.316623,3.3256459 1.222656,4.0585937 -0.07893,0.6156137 -0.380747,2.0157118 -0.542969,2.5742188 0.161366,0.03298 0.324542,0.07122 0.486328,0.113281 0.187935,-0.281903 0.732943,-1.7479499 0.845704,-3.1386716 0.11276,-1.3907216 -1.109629,-3.6641412 -2.011719,-4.8105469 z"
       sodipodi:nodetypes="csccscsccsc" />
    <path
       style="opacity:1;fill:#e900e9;fill-opacity:1;stroke:none;stroke-width:1px;stroke-linecap:butt;stroke-linejoin:miter;stroke-opacity:1"
       d="M 14.658957,10.975425 C 13.625314,8.5698523 10.449206,6.7844664 7.8556979,6.7656729 8.701407,9.6034968 9.3591808,10.900251 10.148509,11.614405 c 0.789329,0.714154 2.12367,1.616244 2.480747,1.465896 0.357077,-0.150348 0.413458,-0.281903 0.112761,-0.357077 -0.300696,-0.07517 -1.202786,-0.638981 -1.860559,-1.1652 -0.657774,-0.526219 -1.8793544,-3.2324877 -2.180051,-3.9654356 1.635037,0.281903 3.194901,0.8269156 4.134578,1.7665924 0.939677,0.9396772 1.390722,1.6350372 1.409515,1.8229732 0.09397,0.03759 0.413457,-0.206729 0.413457,-0.206729 z"
       id="path35"
       sodipodi:nodetypes="ccsssscscc" />
    <path
       id="path36"
       style="opacity:1;fill:#e900e9;fill-opacity:1;stroke:none;stroke-width:1px;stroke-linecap:butt;stroke-linejoin:miter;stroke-opacity:1"
       d="m 10.238281,12.894531 c -0.2469586,0.0035 -0.4745427,0.01288 -0.6718748,0.01758 -0.7893284,0.01879 -3.157024,0.919656 -4.171875,1.708985 1.090025,0.883296 3.1182217,1.785894 4.1894532,1.804687 1.0712316,0.01879 2.8389296,-0.264016 3.0644536,-0.621093 -0.05888,-0.126816 -0.113469,-0.297926 -0.15625,-0.496094 -0.928731,0.452582 -1.647405,0.590185 -2.417969,0.572265 -0.8081221,-0.01879 -1.7866199,-0.150209 -3.5156252,-1.240234 1.6726246,-1.052438 3.4960882,-1.371571 4.3417972,-1.333984 0.689446,0.03064 1.365873,0.111625 1.623047,0.242187 0.03766,-0.119538 0.08443,-0.23424 0.142578,-0.33789 -0.775233,-0.295999 -1.686858,-0.326978 -2.427735,-0.316407 z" />
    <path
       id="path18"
       style="opacity:1;fill:#e900e9;fill-opacity:1;stroke:none;stroke-width:1px;stroke-linecap:butt;stroke-linejoin:miter;stroke-opacity:1"
       d="m 12.382812,15.865234 c -2.181867,0.06518 -4.4511714,3.419076 -4.4511714,5.765625 2.3867804,-0.225523 5.7126244,-1.541347 6.5019534,-3.589843 -0.13816,-0.06739 -0.274983,-0.149959 -0.40625,-0.248047 -0.285739,0.900485 -3.115944,2.917901 -5.1953128,3.029297 -0.018486,-1.830175 2.4363768,-4.257428 3.9296878,-4.765625 -0.02111,-0.05851 -0.03921,-0.117282 -0.05664,-0.175782 -0.106594,-0.01321 -0.214961,-0.01883 -0.322266,-0.01563 z" />
    <path
       id="path37"
       style="opacity:1;fill:#e900e9;fill-opacity:1;stroke:none;stroke-width:1px;stroke-linecap:butt;stroke-linejoin:miter;stroke-opacity:1"
       d="m 14.734375,18.210938 c -0.357078,0.31949 -0.583033,1.503204 -0.658203,2.480468 -0.07517,0.977264 0.976902,3.721302 2.179687,4.980469 1.22158,-1.522276 1.955559,-3.720522 1.917969,-4.810547 -0.03759,-1.090025 -0.113148,-1.69192 -0.507812,-2.65039 -0.109891,0.10989 -0.344631,0.175071 -0.634766,0.208984 0.192627,0.520921 0.408203,1.793164 0.408203,2.402344 0,0.695361 -0.26297,2.069043 -1.240234,3.628906 -0.732948,-0.808122 -1.221184,-3.026473 -1.183594,-3.402344 0.03701,-0.370103 -0.05208,-0.889676 0.339844,-2.68164 -0.292111,-0.04373 -0.524085,-0.100087 -0.621094,-0.15625 z" />
    <path
       id="path38"
       style="opacity:1;fill:#e900e9;fill-opacity:1;stroke:none;stroke-width:1px;stroke-linecap:butt;stroke-linejoin:miter;stroke-opacity:1"
       d="m 19.808594,15.824219 c -0.02804,0.126184 -0.07685,0.268488 -0.144532,0.419922 1.761542,0.356632 3.866289,2.802544 3.978516,4.654297 -2.181313,-0.462144 -4.562025,-1.68848 -5.390625,-2.980469 -0.115484,0.07548 -0.237378,0.141834 -0.361328,0.199219 0.451045,1.259166 3.89091,3.513932 6.634766,3.570312 -0.31949,-2.800237 -2.292431,-5.618965 -4.716797,-5.863281 z"
       sodipodi:nodetypes="ccccccc" />
    <path
       id="path39"
       style="opacity:1;fill:#e900e9;fill-opacity:1;stroke:none;stroke-width:1px;stroke-linecap:butt;stroke-linejoin:miter;stroke-opacity:1"
       d="m 22.515625,12.779297 c -0.955902,-0.06023 -2.550711,0.0829 -2.783203,0.431641 0.06096,0.115817 0.111995,0.234569 0.154297,0.351562 0.296486,-0.15392 0.95559,-0.255859 1.820312,-0.255859 0.977264,0 2.650336,0.262753 4.191407,1.333984 -0.413457,0.507426 -2.707461,1.257813 -3.365235,1.257813 -0.621748,0 -1.663521,-0.03314 -2.632812,-0.306641 -0.04117,0.122309 -0.08505,0.225678 -0.128907,0.306641 0.469838,0.187936 2.123217,0.545663 2.72461,0.564453 0.601394,0.01879 2.55502,-0.130848 4.603515,-1.822266 -1.259166,-0.883296 -3.589899,-1.798689 -4.583984,-1.861328 z"
       sodipodi:nodetypes="sccscsccscs" />
    <path
       id="path40"
       style="opacity:1;fill:#e900e9;fill-opacity:1;stroke:none;stroke-width:1px;stroke-linecap:butt;stroke-linejoin:miter;stroke-opacity:1"
       d="m 24.333984,6.859375 c -1.425545,0.022704 -3.743847,0.9435566 -4.544922,1.6171875 -0.826915,0.6953608 -1.334371,1.1266389 -1.841796,2.6113285 0.132257,0.06104 0.267443,0.148308 0.40039,0.253906 0.330604,-0.807561 0.736028,-1.5715983 1.384766,-2.076172 0.676567,-0.526219 2.36787,-1.5034708 3.927734,-1.6914062 -0.432252,1.5786569 -1.634717,3.7403622 -2.330078,4.1914062 -0.617561,0.40058 -1.308407,1.050826 -1.71875,1.152344 0.07572,0.135634 0.142809,0.267657 0.197266,0.388672 0.413458,-0.07517 1.860367,-0.958544 2.78125,-1.992188 0.920883,-1.033645 1.465448,-2.5569309 1.878906,-4.455078 -0.04405,-0.00117 -0.08878,-7.324e-4 -0.134766,0 z" />
  </g>
  <g
     inkscape:groupmode="layer"
     id="layer2"
     inkscape:label="Layer 1"
     sodipodi:insensitive="true"
     style="display:inline">
    <path
       id="path1"
       style="opacity:1;fill:#e900e9;fill-opacity:1;stroke:none;stroke-width:8;stroke-linecap:round"
       d="M 16,0 A 15.999999,16 0 0 0 0,16 15.999999,16 0 0 0 16,32 15.999999,16 0 0 0 32,16 15.999999,16 0 0 0 16,0 Z m 0,1.1699219 A 14.830564,14.830564 0 0 1 30.830078,16 14.830564,14.830564 0 0 1 16,30.830078 14.830564,14.830564 0 0 1 1.1699219,16 14.830564,14.830564 0 0 1 16,1.1699219 Z" />
    <path
       id="path41"
       style="opacity:1;fill:#e900e9;fill-opacity:1;stroke:none;stroke-width:8;stroke-linecap:round"
       d="m 16.21875,10.580078 a 3.9278488,4.0406103 0 0 0 -3.927734,4.041016 3.9278488,4.0406103 0 0 0 3.927734,4.041015 3.9278488,4.0406103 0 0 0 3.927734,-4.041015 3.9278488,4.0406103 0 0 0 -3.927734,-4.041016 z m 0,0.503906 a 3.4392169,3.5379505 0 0 1 3.439453,3.53711 3.4392169,3.5379505 0 0 1 -3.439453,3.539062 3.4392169,3.5379505 0 0 1 -3.439453,-3.539062 3.4392169,3.5379505 0 0 1 3.439453,-3.53711 z" />
    <path
       id="path42"
       style="opacity:1;fill:#e900e9;fill-opacity:1;stroke:none;stroke-width:8;stroke-linecap:round"
       d="m 16.228516,11.765625 a 2.8848076,2.9036014 0 0 0 -2.884766,2.902344 2.8848076,2.9036014 0 0 0 2.884766,2.904297 2.8848076,2.9036014 0 0 0 2.884765,-2.904297 2.8848076,2.9036014 0 0 0 -2.884765,-2.902344 z m 0,0.394531 a 2.492698,2.5089371 0 0 1 2.492187,2.507813 2.492698,2.5089371 0 0 1 -2.492187,2.509765 2.492698,2.5089371 0 0 1 -2.492188,-2.509765 2.492698,2.5089371 0 0 1 2.492188,-2.507813 z" />
    <path
       id="path43"
       style="opacity:1;fill:#e900e9;fill-opacity:1;stroke:none;stroke-width:8;stroke-linecap:round"
       d="m 16.232422,12.492188 a 2.2259138,2.2059798 0 0 0 -2.226563,2.205078 2.2259138,2.2059798 0 0 0 2.226563,2.207031 2.2259138,2.2059798 0 0 0 2.226562,-2.207031 2.2259138,2.2059798 0 0 0 -2.226562,-2.205078 z m 0,0.371093 a 1.8504584,1.8338867 0 0 1 1.851562,1.833985 1.8504584,1.8338867 0 0 1 -1.851562,1.833984 1.8504584,1.8338867 0 0 1 -1.84961,-1.833984 1.8504584,1.8338867 0 0 1 1.84961,-1.833985 z" />
    <path
       id="path44"
       style="opacity:1;fill:#e900e9;fill-opacity:1;stroke:none;stroke-width:8;stroke-linecap:round"
       d="m 16.212891,13.183594 a 1.5282391,1.5348837 0 0 0 -1.529297,1.533203 1.5282391,1.5348837 0 0 0 1.529297,1.535156 1.5282391,1.5348837 0 0 0 1.527343,-1.535156 1.5282391,1.5348837 0 0 0 -1.527343,-1.533203 z m 0,0.332031 a 1.1960132,1.2012134 0 0 1 1.195312,1.201172 1.1960132,1.2012134 0 0 1 -1.195312,1.201172 1.1960132,1.2012134 0 0 1 -1.195313,-1.201172 1.1960132,1.2012134 0 0 1 1.195313,-1.201172 z" />
    <path
       id="path45"
       style="opacity:1;fill:#e900e9;fill-opacity:1;stroke:none;stroke-width:8;stroke-linecap:round"
       d="m 16.226562,13.806641 a 0.85049832,0.88372087 0 0 0 -0.851562,0.884765 0.85049832,0.88372087 0 0 0 0.851562,0.882813 0.85049832,0.88372087 0 0 0 0.84961,-0.882813 0.85049832,0.88372087 0 0 0 -0.84961,-0.884765 z m 0,0.345703 a 0.5182724,0.53851742 0 0 1 0.517579,0.539062 0.5182724,0.53851742 0 0 1 -0.517579,0.539063 0.5182724,0.53851742 0 0 1 -0.519531,-0.539063 0.5182724,0.53851742 0 0 1 0.519531,-0.539062 z" />
    <ellipse
       style="opacity:1;fill:#e900e9;fill-opacity:1;stroke:none;stroke-width:8;stroke-linecap:round"
       id="path46"
       cx="16.212626"
       cy="14.717608"
       rx="0.19933555"
       ry="0.23255815" />
    <path
       style="fill:#e900e9;fill-opacity:1;stroke:none;stroke-width:1px;stroke-linecap:butt;stroke-linejoin:miter;stroke-opacity:1"
       d="m 15.974505,20.672889 0.244316,-0.826915 0.225523,0.845709 -0.187936,1.033644 z"
       id="path47" />
    <path
       style="fill:#e900e9;fill-opacity:1;stroke:none;stroke-width:1px;stroke-linecap:butt;stroke-linejoin:miter;stroke-opacity:1"
       d="m 19.808387,17.741098 1.146405,0.300696 0.808122,1.052438 -1.221579,-0.526219 z"
       id="path48" />
    <path
       style="fill:#e900e9;fill-opacity:1;stroke:none;stroke-width:1px;stroke-linecap:butt;stroke-linejoin:miter;stroke-opacity:1"
       d="m 20.879618,14.56499 1.033645,-0.281903 1.183993,0.281903 -1.127613,0.26311 z"
       id="path49" />
    <path
       style="fill:#e900e9;fill-opacity:1;stroke:none;stroke-width:1px;stroke-linecap:butt;stroke-linejoin:miter;stroke-opacity:1"
       d="m 19.695626,11.16336 0.563806,-1.033644 1.071231,-0.4698386 -0.657774,0.9772636 z"
       id="path50" />
    <path
       style="fill:#e900e9;fill-opacity:1;stroke:none;stroke-width:1px;stroke-linecap:butt;stroke-linejoin:miter;stroke-opacity:1"
       d="M 15.993299,8.5134717 16.218821,7.4422402 16.42555,8.5510588 16.218821,9.4531485 Z"
       id="path51"
       sodipodi:nodetypes="ccccc" />
    <path
       style="fill:#e900e9;fill-opacity:1;stroke:none;stroke-width:1px;stroke-linecap:butt;stroke-linejoin:miter;stroke-opacity:1"
       d="M 12.554082,11.294915 11.576818,10.731109 10.900251,9.6598774 11.915102,10.355239 Z"
       id="path52"
       sodipodi:nodetypes="ccccc" />
    <path
       style="fill:#e900e9;fill-opacity:1;stroke:none;stroke-width:1px;stroke-linecap:butt;stroke-linejoin:miter;stroke-opacity:1"
       d="m 9.7162584,14.621371 1.1228136,-0.225523 0.906888,0.26311 -0.863703,0.150348 z"
       id="path53" />
    <path
       style="fill:#e900e9;fill-opacity:1;stroke:none;stroke-width:1px;stroke-linecap:butt;stroke-linejoin:miter;stroke-opacity:1"
       d="m 11.162339,18.867404 0.613707,-0.902019 0.891818,-0.542471 -0.544477,0.854363 z"
       id="path54"
       sodipodi:nodetypes="ccccc" />
  </g>
</svg>
