<svg xmlns="http://www.w3.org/2000/svg" xmlns:xlink="http://www.w3.org/1999/xlink" width="32" height="32" style="enable-background:new" viewBox="0 0 5.263 5.267"><defs><linearGradient id="c"><stop offset="0" style="stop-color:#3977b8;stop-opacity:1"/><stop offset="1" style="stop-color:#20476b;stop-opacity:1"/></linearGradient><linearGradient id="a"><stop offset="0" style="stop-color:#4a1767;stop-opacity:1"/><stop offset="1" style="stop-color:#794897;stop-opacity:1"/></linearGradient><linearGradient xlink:href="#a" id="r" x1="163.733" x2="131.65" y1="177.684" y2="119.594" gradientTransform="matrix(1.07748 0 0 1.19633 -9.985 -6.674)" gradientUnits="userSpaceOnUse"/><linearGradient xlink:href="#a" id="s" x1="130.793" x2="143.733" y1="189.323" y2="192.933" gradientTransform="matrix(1.07748 0 0 1.19633 -4.813 -5.969)" gradientUnits="userSpaceOnUse"/><linearGradient xlink:href="#a" id="h" x1="250.793" x2="251.343" y1="38.123" y2="145.937" gradientTransform="matrix(1.04232 0 0 1.27023 15.949 -9.8)" gradientUnits="userSpaceOnUse"/><linearGradient xlink:href="#a" id="g" x1="236.776" x2="249.026" y1="156.799" y2="143.922" gradientTransform="matrix(1.04232 0 0 1.27023 15.949 -9.8)" gradientUnits="userSpaceOnUse"/><linearGradient xlink:href="#c" id="n" x1="216.792" x2="221.721" y1="54.808" y2="30.029" gradientTransform="matrix(1.32036 .11756 -.1493 1.42915 -34.252 -31.405)" gradientUnits="userSpaceOnUse"/><linearGradient xlink:href="#c" id="j" x1="192.932" x2="200.395" y1="78.092" y2="42.07" gradientTransform="matrix(1.51518 -.01594 -.01543 1.43153 -79.316 -6.938)" gradientUnits="userSpaceOnUse"/><linearGradient xlink:href="#c" id="l" x1="175.942" x2="181.242" y1="54.606" y2="29.501" gradientTransform="matrix(1.36116 .11416 -.12702 1.33503 -38.903 -18.923)" gradientUnits="userSpaceOnUse"/><clipPath id="m" clipPathUnits="userSpaceOnUse"><use xlink:href="#b" width="100%" height="100%"/></clipPath><clipPath id="o" clipPathUnits="userSpaceOnUse"><use xlink:href="#d" width="100%" height="100%"/></clipPath><clipPath id="i" clipPathUnits="userSpaceOnUse"><use xlink:href="#e" width="100%" height="100%"/></clipPath><clipPath id="k" clipPathUnits="userSpaceOnUse"><use xlink:href="#f" width="100%" height="100%"/></clipPath><filter id="q" width="1" height="1" x="0" y="0" style="color-interpolation-filters:sRGB"><feBlend in2="BackgroundImage" mode="multiply"/></filter></defs><g style="display:inline;stroke-width:1.07553;enable-background:new"><path d="M147.315 55.499c-11.453 5.86-20.279 25.972-19.312 42.654.966 16.683 24.94 36.937 27.228 35.384 2.288-1.553-1.854-52.219-1.854-52.219z" style="fill:#5e50a0;fill-opacity:1;stroke:#4a1767;stroke-width:4.3353881;stroke-linecap:butt;stroke-linejoin:miter;stroke-miterlimit:4;stroke-dasharray:none;stroke-opacity:1" transform="matrix(.0379 0 0 .03803 -4.659 -.741)"/><path d="M146.165 67.102c-12.606 4.298-14.982 34.913-9.49 46.325" style="fill:none;stroke:#4a1767;stroke-width:1.77011;stroke-linecap:butt;stroke-linejoin:miter;stroke-miterlimit:4;stroke-dasharray:none;stroke-opacity:1" transform="matrix(.0379 0 0 .03803 -4.659 -.741)"/><path d="M143.676 121.443c-6.608-13.77-4.04-36.66 4.546-43.99" style="fill:none;stroke:#4a1767;stroke-width:1.77011;stroke-linecap:butt;stroke-linejoin:miter;stroke-miterlimit:4;stroke-dasharray:none;stroke-opacity:1" transform="matrix(.0379 0 0 .03803 -4.659 -.741)"/><path d="M150.134 126.806c-5.199-11.883-7.104-30.666-1.428-37.359" style="fill:none;stroke:#4a1767;stroke-width:1.77011;stroke-linecap:butt;stroke-linejoin:miter;stroke-miterlimit:4;stroke-dasharray:none;stroke-opacity:1" transform="matrix(.0379 0 0 .03803 -4.659 -.741)"/></g><g style="display:inline;enable-background:new"><path d="M86.265 148.035c19.737-.533 18.517 5.442 36.813 6.583 14.337.894 27.482-7.52 27.215-25.093-.267-17.573-.268-27.678-2.315-46.512-1.89-17.387 4.157-23.435 6.614-24.569 2.457-1.134 23.894 42.165 32.32 64.777 5.956 15.984 13.91 29.68 12.689 49.575 48.17 98.633-120.783-23.802-113.336-24.761Z" style="fill:#eaeef0;fill-opacity:1;stroke:#bdc1c2;stroke-width:4.03093;stroke-linecap:butt;stroke-linejoin:miter;stroke-miterlimit:4;stroke-dasharray:none;stroke-opacity:1" transform="matrix(.04083 0 0 .04083 -5.037 -1.25)"/></g><g style="stroke-width:1.15065;enable-background:new" transform="matrix(.03917 0 0 .03214 -5.662 -.2)"><path d="M230.012 124.39c7.864 11.643 19.25 21.79 30.024 22.627 10.774.836 14.163-7.185 15.504-11.943 1.34-4.758 1.745-15.037-7.862-16.178-17.003-2.019-18.788-18.779-18.788-18.779" style="fill:url(#g);fill-opacity:1;stroke:#4a1767;stroke-width:4.63817178;stroke-linecap:butt;stroke-linejoin:miter;stroke-miterlimit:4;stroke-dasharray:none;stroke-opacity:1"/><path d="M256.253 128.445c2.581 2.982 3.19 3.484 6.064 4.051 2.873.567 6.468-2.046 4.876-4.497-4.474.306-5.248-2.364-6.43-5.121" style="fill:#4a1767;fill-opacity:1;stroke:#4a1767;stroke-width:4.63817178;stroke-linecap:butt;stroke-linejoin:miter;stroke-miterlimit:4;stroke-dasharray:none;stroke-opacity:1"/><path d="M245.029 117.9c2.636 6.459 9.502 12.667 16.11 14.491-6.31-5.424 1.812-15.929 10.148-12.603-8.897-4.096-18.5-8.503-20.427-18.322" style="fill:#5e50a0;fill-opacity:1;stroke:#4a1767;stroke-width:4.63817178;stroke-linecap:butt;stroke-linejoin:miter;stroke-miterlimit:4;stroke-dasharray:none;stroke-opacity:1"/><path d="M227.764 127.116c8.295 10.971 22.484 26.997 40.787 17.83-14.923 5.178-20.646-12.36-19.129-24.268 2.448-19.212 19.65-37.79 19.778-61.17.09-16.521-11.965-27.017-27.479-24.436-15.514 2.581-18.025 11.589-16.695 13.771 1.33 2.183 16.315 18.218 18.295 24.687 8.549 27.936-12.742 50.32-15.557 53.586z" style="fill:url(#h);fill-opacity:1;stroke:#4a1767;stroke-width:4.63817178;stroke-linecap:butt;stroke-linejoin:miter;stroke-miterlimit:4;stroke-dasharray:none;stroke-opacity:1"/><path d="M251.22 147.131c-13.442-8.602-9.752-35.257-6.088-47.212 4.09-13.348 17.098-27.257 17.344-41.616.21-12.234-5.707-19.59-6.538-20.874M242.81 59.258c1.842-5.117 1.141-15.431-1.873-19.612" style="fill:none;stroke:#4a1767;stroke-width:1.89373;stroke-linecap:butt;stroke-linejoin:miter;stroke-miterlimit:4;stroke-dasharray:none;stroke-opacity:1"/><path d="M245.925 73.56c7.53-3.057 10.928-28.461 3.156-36.9" style="fill:none;stroke:#4a1767;stroke-width:1.89373;stroke-linecap:butt;stroke-linejoin:miter;stroke-miterlimit:4;stroke-dasharray:none;stroke-opacity:1"/><ellipse cx="199.883" cy="-36.584" rx="7.94" ry="20.252" style="opacity:1;fill:#4a1767;fill-opacity:1;stroke:#4a1767;stroke-width:4.63841248;stroke-miterlimit:4;stroke-dasharray:none;stroke-opacity:1" transform="matrix(.94588 .32453 -.33812 .9411 0 0)"/></g><g style="stroke-width:1.32538;enable-background:new"><path d="M151.839 130.07c-1.323-12.567-3.437-39.715-4.334-51.593-1.512-20.033 16.214-51.967 42.334-54.05 34.01-2.714 61.292 9.72 62.366 45.734 1.073 36.015-28.57 60.82-57.811 52.252" style="fill:#eaeef0;fill-opacity:1;stroke:none;stroke-width:4.36263;stroke-linecap:butt;stroke-linejoin:miter;stroke-miterlimit:4;stroke-dasharray:none;stroke-opacity:1" transform="matrix(.02985 0 0 .03179 -3.511 .228)"/><path d="M140.353 152.461c-.766.621-1.604 1.858-2.274 2.736-.717.94-1.379 1.7-1.379 1.7s.81.602 2.21.862c1.412.262 3.327.104 4.828-1.103 3.92-3.163 6.282-8.426 7.696-14.331 5.574-23.288-1.817-65.646-2.391-73.248-.687-9.101 3.309-19.145 10.673-27.128 7.365-7.982 18-13.852 30.337-14.836 16.623-1.326 31.358 1.11 41.853 7.919 5.248 3.405 9.472 7.882 12.496 13.658 3.025 5.777 4.85 12.883 5.109 21.552.824 27.637-16.615 47.854-36.547 52.185-4.436.963-6.83 1.539-10.566 2.13a86.868 86.868 0 0 1-5.173.673s1.852 1.131 4.996 2.016c3.22.905 7.472 1.409 11.887.448 22.692-4.93 41.685-27.62 40.79-57.613-1.128-37.87-30.02-51.153-65.274-48.341-27.382 2.184-47.595 26.024-45.956 47.742.54 7.154 4.68 31.333 4.456 52.493-.09 8.464-.907 16.372-2.789 22.16-1.254 3.858-2.968 6.701-4.982 8.326z" style="fill:#bdc1c2;fill-opacity:1;fill-rule:nonzero;stroke:none;stroke-width:4.36263;stroke-linecap:butt;stroke-linejoin:miter;stroke-miterlimit:4;stroke-dasharray:none;stroke-opacity:1" transform="matrix(.02985 0 0 .03179 -3.511 .228)"/><g style="stroke-width:1.32538"><g style="opacity:.997;stroke-width:1.47265"><path d="M203.652 94.453c7.197-13.202 4.664-48.665-18.67-49.087-17.934 3.458-21.35 22.439-17.67 36.618 4.837 18.642 27.233 17.348 36.34 12.469z" style="fill:#fff;fill-opacity:1;stroke:none;stroke-width:.242369px;stroke-linecap:butt;stroke-linejoin:miter;stroke-opacity:1" transform="matrix(.02693 0 0 .02855 -2.938 .626)"/><g clip-path="url(#i)" style="stroke-width:1.47265" transform="matrix(.02693 0 0 .02855 -2.938 .626)"><g style="stroke-width:1.47265"><path id="e" d="M203.652 94.453c7.197-13.202 4.664-48.665-18.67-49.087-17.934 3.458-21.35 22.439-17.67 36.618 4.837 18.642 27.233 17.348 36.34 12.469z" style="opacity:.997;fill:#fff;fill-opacity:1;stroke:none;stroke-width:.242369px;stroke-linecap:butt;stroke-linejoin:miter;stroke-opacity:1"/></g><ellipse cx="200.723" cy="57.98" rx="15.16" ry="24.291" style="display:inline;opacity:1;fill:url(#j);fill-opacity:1;stroke:none;stroke-width:.242752;stroke-opacity:1" transform="matrix(.99272 .12045 -.11271 .99363 0 0)"/><g clip-path="url(#k)" style="opacity:.997;stroke-width:1.47265" transform="matrix(.99603 -.0858 .09246 .99603 -10.388 15.726)"><g style="stroke-width:1.47265"><ellipse id="f" cx="202.254" cy="59.66" rx="16.34" ry="25.34" style="display:inline;opacity:1;fill:url(#l);fill-opacity:1;stroke:none;stroke-width:.242749;stroke-opacity:1" transform="rotate(6.691)"/></g><path d="m178.712 95.861 9.052-4.578-1.517-4.201-9.117 2.688z" style="fill:#76ade5;fill-opacity:1;stroke:none;stroke-width:.242369px;stroke-linecap:butt;stroke-linejoin:miter;stroke-opacity:1"/><path d="m176.031 83.24 10.675-.086-.46 3.928-9.116 2.688z" style="fill:#5693cf;fill-opacity:1;stroke:none;stroke-width:.242369px;stroke-linecap:butt;stroke-linejoin:miter;stroke-opacity:1"/><ellipse cx="203.728" cy="61.575" rx="10.964" ry="18.696" style="opacity:1;fill:#000;fill-opacity:1;stroke:none;stroke-width:.242754;stroke-opacity:1" transform="matrix(.99424 .10721 -.10028 .99496 0 0)"/><ellipse cx="208.479" cy="-60.593" rx="1.88" ry="3.484" style="opacity:1;fill:#fff;fill-opacity:1;stroke:none;stroke-width:.242749;stroke-opacity:1" transform="rotate(39.493)"/><ellipse cx="178.873" cy="-89.795" rx="4.836" ry="9.034" style="opacity:1;fill:#fff;fill-opacity:1;stroke:none;stroke-width:.243147;stroke-opacity:1" transform="matrix(.68352 .72994 -.78285 .62221 0 0)"/></g></g><path d="M168.927 57.463c2.797-9.565 22.711-5.213 29.954 4.599 8.099 10.97 6.547 27.84 5.79 30.226 6.104-14.489 3.506-39.362-8.166-47.004-11-7.202-24.288-.84-27.578 12.18z" style="fill:#b8e1f0;fill-opacity:1;stroke:none;stroke-width:.242369px;stroke-linecap:butt;stroke-linejoin:miter;stroke-opacity:1" transform="matrix(.02693 0 0 .02855 -2.938 .626)"/><g style="stroke-width:1.47265"><path d="M193.948 59.988c4.413 3.69 7.091 9.26 8.657 14.458 2.912 9.846 1.996 17.819 1.996 17.819s2.855-7.578 1.02-18.509c-.946-5.79-3.495-12.354-8.89-17.032a23.2 23.2 0 0 0-5.985-3.707c-10.208-4.353-15.914-2.073-20.14-.002-1.584.758-2.751 1.717-3.86 2.335-.954.594-2 .875-2.857.99-.84.115-1.405.08-1.405.08s1.418 2.136 5.033 1.917c1.805-.121 3.516-.734 4.977-1.47 1.922-.941 3.85-1.778 6.385-1.99 2.535-.213 5.746.193 10.184 2.086a18.894 18.894 0 0 1 4.885 3.025z" style="fill:#000;fill-rule:nonzero;stroke:none;stroke-width:4.84738;stroke-linecap:butt;stroke-linejoin:miter;stroke-miterlimit:4;stroke-dasharray:none;stroke-opacity:1" transform="matrix(.02693 0 0 .02855 -2.938 .626)"/><path d="M196.491 57.556c-.533-.73-.972-1.788-1.254-3.006a33.528 33.528 0 0 1-.837-6.362c.038-1.818-.157-2.303.092-3.44.173-.787.5-1.216.5-1.216s-.495.206-1.066.94c-.634.814-1.1 1.95-1.453 3.48-.576 2.076-.854 4.65-.246 7.295.342 1.48.907 2.953 1.77 4.133zM185.963 52.075c-.328-.348-.636-.82-.9-1.39-.85-1.783-1.296-3.891-1.59-5.753-.17-1.117-.252-1.991-.265-2.824.006-1.253.226-1.987.226-1.987s-.622.508-1.145 1.804c-.334.803-.627 1.791-.811 2.99-.328 2.033-.338 4.6.781 7.07.37.798.848 1.564 1.453 2.207zM199.433 66.117c.011.188 1.564.225 1.564.225s1.528-.28 1.52-.408a19.17 19.17 0 0 1 .098-3.128c.273-2.431.468-4.279.99-6.269.269-.988.491-1.668.867-2.307.615-1.003 1.347-1.23 1.347-1.23s-.828-.307-2.02.598c-.68.494-1.33 1.204-1.934 2.152-1.18 1.826-2.053 4.15-2.322 6.724a22.167 22.167 0 0 0-.11 3.643zM177.037 51.754c-.374-.138-.91-.484-1.47-1.01-1.262-1.173-2.41-2.579-3.45-3.898-1.703-2.224-2.707-4.031-2.707-4.031s-.214 2.148.85 5.045c.596 1.677 1.561 3.584 3.19 5.133.733.69 1.6 1.321 2.515 1.66z" style="fill:#000;fill-rule:nonzero;stroke:none;stroke-width:4.84738;stroke-linecap:butt;stroke-linejoin:miter;stroke-miterlimit:4;stroke-dasharray:none;stroke-opacity:1" transform="matrix(.02693 0 0 .02855 -2.938 .626)"/></g></g><g style="stroke-width:1.38005" transform="matrix(.0306 -.0023 .00349 .02834 -3.988 1.064)"><g clip-path="url(#m)" style="stroke-width:1.38005"><g style="stroke-width:1.38005"><path id="b" d="M228.87 93.202c-2.622-7.106-1.679-28.018 3.692-35.938 5.37-7.92 12.613-10.546 14.61-7.818 4.036 7.09 4.95 14.754 4.582 22.03-.106 22.461-14.201 24.966-22.883 21.726z" style="display:inline;fill:#fff;fill-opacity:1;stroke:none;stroke-width:.227129px;stroke-linecap:butt;stroke-linejoin:miter;stroke-opacity:1"/></g><ellipse cx="244.153" cy="53.638" rx="13.491" ry="20.749" style="opacity:1;fill:url(#n);fill-opacity:1;stroke:none;stroke-width:.227517;stroke-opacity:1" transform="matrix(.99537 .09614 -.11944 .99284 0 0)"/><g clip-path="url(#o)" style="stroke-width:1.38005"><path d="m241.225 85.7 7.53 3.16 1.05-5.2-7.514-1.077z" style="fill:#76ade5;fill-opacity:1;stroke:none;stroke-width:.227129px;stroke-linecap:butt;stroke-linejoin:miter;stroke-opacity:1"/><g style="stroke-width:1.38005"><ellipse id="d" cx="244.153" cy="53.638" rx="13.491" ry="20.749" style="opacity:1;fill:none;fill-opacity:1;stroke:none;stroke-width:.227517;stroke-opacity:1" transform="matrix(.99537 .09614 -.11944 .99284 0 0)"/></g><path d="m241.137 78.85 10.96-.248-2.292 5.057-8.193-1.025z" style="fill:#5693cf;fill-opacity:1;stroke:none;stroke-width:.227129px;stroke-linecap:butt;stroke-linejoin:miter;stroke-opacity:1"/></g><ellipse cx="237.894" cy="68.885" rx="9.714" ry="16.668" style="opacity:1;fill:#000;fill-opacity:1;stroke:none;stroke-width:.227485;stroke-opacity:1" transform="rotate(2.785)"/><ellipse cx="230.342" cy="-67.776" rx="4.042" ry="7.39" style="opacity:1;fill:#fff;fill-opacity:1;stroke:none;stroke-width:.227859;stroke-opacity:1" transform="matrix(.8436 .53698 -.60353 .79734 0 0)"/><ellipse cx="248.298" cy="-45.824" rx="1.583" ry="3.332" style="opacity:1;fill:#fff;fill-opacity:1;stroke:none;stroke-width:.227485;stroke-opacity:1" transform="rotate(29.456)"/></g><g style="stroke-width:1.38005"><path id="p" d="M228.87 93.202c-2.622-7.106-1.679-28.018 3.692-35.938 5.37-7.92 12.613-10.546 14.61-7.818 1.997 2.728 4.23 10.322 4.56 14.223.331 3.901.054 11.522-.978 16.183-1.12 5.064-12.762 17.892-21.884 13.35z" style="fill:none;stroke:none;stroke-width:.227129px;stroke-linecap:butt;stroke-linejoin:miter;stroke-opacity:1"/></g><use xlink:href="#p" width="100%" height="100%" style="display:inline;stroke-width:1.38005"/><path d="M249.54 53.54c-2.29-3.154-6.285-4.393-11.774-.567-7.769 5.415-12.015 30.599-8.896 40.23-5.684-16.99-2.134-40.238 4.005-48.179 6.139-7.94 13.095-.786 16.665 8.516z" style="fill:#b8e1f0;fill-opacity:1;stroke:none;stroke-width:.227129px;stroke-linecap:butt;stroke-linejoin:miter;stroke-opacity:1"/><g style="stroke-width:1.38005"><path d="M228.896 64.065c-1.653 5.159-2.38 10.306-2.465 15.017-.095 4.334.364 7.67 1.064 10.3.661 2.48 1.375 3.82 1.375 3.82s-.272-1.498-.295-3.97c-.026-2.746.273-5.644 1.021-9.84.825-4.506 2-9.034 3.576-13.958 1.012-3.163 2.17-5.883 3.21-7.686.695-1.202 1.399-1.983 1.618-2.142 1.666-1.21 3.238-2.105 4.644-2.474 1.406-.368 2.617-.324 4.173.47.365.186.737.389 1.118.603 2.347 1.384 4.915 1.085 6.526.331a7.818 7.818 0 0 0 1.956-1.299c.65-.595.907-1.032.907-1.032s-.491.089-1.293.135c-.561.024-1.252.015-2-.086-1.34-.206-2.764-.754-3.584-1.606a8.93 8.93 0 0 0-1.587-1.044c-5.112-2.611-9.628-.44-13.498 2.368-2.568 1.865-4.899 7.197-6.466 12.093z" style="fill:#000;fill-rule:nonzero;stroke:none;stroke-width:4.54258;stroke-linecap:butt;stroke-linejoin:miter;stroke-miterlimit:4;stroke-dasharray:none;stroke-opacity:1"/><path d="M244.653 49.45c-.098.033.109 1.58.109 1.58s.593 1.444.874 1.35c1-.336 1.897-.872 2.685-1.505 1.79-1.46 2.765-3.408 3.269-5.082.39-1.21.554-2.173.543-3-.01-.756-.16-1.163-.16-1.163s-.122.419-.462 1.01c-.472.822-.798 1.12-1.652 2.26-1.009 1.248-2.17 2.539-3.474 3.567-.56.45-1.144.786-1.732.983zM233.702 54.93c-.15.213.825 1.467.825 1.467s1.434.692 1.703.31a13.392 13.392 0 0 0 1.572-3.024c.961-2.483.89-5.02.363-6.935-.51-1.854-1.314-2.81-1.314-2.81s.062 1.245-.226 2.905c-.327 1.889-.923 3.529-1.718 5.76a10.317 10.317 0 0 1-1.205 2.327zM229.804 63.642c-.05.131 1.2 1.098 1.2 1.098s1.528.429 1.692-.008c.474-1.257.668-2.844.676-4.37.011-2.058-.517-3.978-1.259-5.538-.542-1.228-1.183-2.11-1.83-2.683-.602-.533-1.044-.667-1.044-.667s.277.375.491 1.043c.282.876.266 1.449.434 2.849.129 1.656.125 3.115.118 4.982-.006 1.324-.192 2.536-.478 3.294zM239.783 50.102c-.123.108.372 1.64.372 1.64s1.19 1.108 1.678.672c.559-.496 1.061-1.109 1.484-1.747 1.114-1.687 1.518-3.578 1.532-5.194.092-1.215-.132-2.27-.5-2.97-.346-.66-.72-.864-.72-.864s.154.402.085 1.003c-.101.873-.389 1.155-.824 2.436a25.882 25.882 0 0 1-2.149 3.882 5.911 5.911 0 0 1-.958 1.142z" style="fill:#000;fill-rule:nonzero;stroke:none;stroke-width:4.54258;stroke-linecap:butt;stroke-linejoin:miter;stroke-miterlimit:4;stroke-dasharray:none;stroke-opacity:1"/></g></g></g><g style="stroke-width:1.32538"><path d="M216.506 82.398c-1.626 2.463 5.173 11.918 9.655 10.737 3.476-.916 9.271-5.855 14.678-.327 3.69 3.774.952 20.544-14.735 27.378" style="fill:#eaeef0" transform="matrix(.02985 0 0 .03179 -3.511 .228)"/><path d="M231.333 88.19c-2.557.816-4.292 2.093-5.787 2.613-.176.326-1.005.047-1.947-.247-1.254-.526-2.445-1.427-3.463-2.314-1.298-1.158-2.181-2.152-2.855-3.19-.372-.58-.594-1.006-.734-1.459-.22-.763-.041-1.195-.041-1.195s-.424.291-.514 1.24c-.058.52-.028 1.132.123 1.873.263 1.319.824 2.846 1.834 4.513.787 1.33 1.9 2.796 3.517 4.024 1.145.98 2.947 1.754 5.31 1.419 2.548-.546 4.553-1.703 6.144-2.176 1.119-.348 2.125-.481 3.041-.326.917.154 1.833.55 2.968 1.71.074.077.375.538.541 1.372.25 1.25.222 3.227-.305 5.443-1.316 5.54-5.533 12.503-14.127 16.247l2.133 4.898c8.558-3.728 13.624-10.17 16.05-16.302 2.179-5.504 2.645-12.205-.473-15.393-3.822-3.908-7.992-3.816-11.415-2.75z" style="fill:#bdc1c2;fill-opacity:1;fill-rule:nonzero;stroke:none;stroke-width:5.34253px;stroke-linecap:butt;stroke-linejoin:miter;stroke-opacity:1" transform="matrix(.02985 0 0 .03179 -3.511 .228)"/><path d="M224.015 93.74c-.677-.58-1.59-.677-2.266-.552-.67.123-1.034.426-1.034.426s.324.346.642.784c.3.411.65.998 1.021 1.298.207.173.397.366.563.567.303.457.906.742 1.295 1.046.4.315.655.722.655.722s.395-.285.57-1.006c.179-.73.063-1.734-.55-2.381a6.88 6.88 0 0 0-.896-.904z" style="opacity:1;fill:#bdc1c2;fill-rule:nonzero;stroke:none;stroke-width:2.53102;stroke-linecap:butt;stroke-linejoin:miter;stroke-miterlimit:4;stroke-dasharray:none;stroke-opacity:1" transform="matrix(.01621 -.01998 .02175 .01667 -2.232 6.22)"/><path d="M222.419 106.365c-3.021 1.14-5.97 1.51-8.565 1.264-2.46-.235-4.113-.972-4.113-.972s1.136 1.422 3.697 2.532c2.618 1.136 6.377 1.658 10.138.213 2.398-.914 4.559-2.336 6.129-4.054.906-.969 1.238-2.28 1.231-3.315-.006-1.018-.317-1.64-.317-1.64s-.503.479-1.169.995c-.608.472-1.574 1.124-2.144 1.768-1.185 1.296-2.91 2.456-4.887 3.21z" style="opacity:1;fill:#bdc1c2;fill-rule:nonzero;stroke:none;stroke-width:2.18131;stroke-linecap:butt;stroke-linejoin:miter;stroke-miterlimit:4;stroke-dasharray:none;stroke-opacity:1" transform="matrix(.02863 .00827 -.008 .03083 -2.184 -1.405)"/></g><g style="stroke-width:1.32538"><g style="stroke-width:1.47265;filter:url(#q)" transform="matrix(.02693 0 0 .02855 -2.904 .501)"><path d="M166.108 69.65c.189.126 1.166-.7 1.166-.7s.513-1.173.219-1.37a14.15 14.15 0 0 0-1.127-.677 10.261 10.261 0 0 0-4.601-1.235c-1.202-.073-2.187.166-2.85.506-.633.324-.87.66-.87.66s.39-.142 1.001-.122c.74.023 1.326.237 2.416.598 1.257.476 2.374 1.06 3.718 1.783.334.18.647.368.928.557zM165.591 77.187c.096.069 1.191-.622 1.191-.622s.655-1.13.234-1.42c-.534-.373-1.183-.686-1.87-.942-2.306-.896-4.655-.866-6.44-.378-1.72.47-2.586 1.239-2.586 1.239s1.138-.183 2.694-.002c1.741.202 3.371.74 5.465 1.476.552.205 1.01.439 1.312.649zM165.981 85.39c.013.007 1.004-.803 1.004-.803s.553-1.171.269-1.338c-.77-.458-1.746-.689-2.716-.793-1.91-.201-3.71.185-5.176.746-1.274.458-2.193 1.009-2.835 1.589-.598.54-.808.96-.808.96s.398-.254 1.095-.463c.858-.257 1.554-.295 2.924-.423 1.453-.095 2.986-.105 4.534.066.78.084 1.408.279 1.709.458zM168.743 92.25c.11-.014.178-1.269.178-1.269s-.263-1.23-.483-1.203c-.548.068-1.156.196-1.781.373-1.971.549-3.674 1.58-4.937 2.842-1.163 1.082-1.66 2.362-1.756 3.268-.095.895.15 1.37.15 1.37s.015-.537.394-1.205c.42-.74 1.14-1.374 2.27-2.08 1.353-.777 2.835-1.303 4.556-1.799a9.748 9.748 0 0 1 1.41-.298z" style="fill:#000;fill-rule:nonzero;stroke:none;stroke-width:4.84738;stroke-linecap:butt;stroke-linejoin:miter;stroke-miterlimit:4;stroke-dasharray:none;stroke-opacity:1"/></g></g><g style="stroke-width:1.25151"><path d="M277.64 39.39c-1.25-19.75-47.369-24.5-61.46 6.261-5.127-10.399-19.964-15.391-25.709-15.184.17-15.768 18.768-34.58 26.09-35.102 17.712-1.262 56.011 10.642 61.08 44.024zM182.688 30.564C181.767 18.489 191-1.576 199.055-3.03c-10.252-1.236-37.57 18.26-38.854 31.94-.73 7.785-1.979 17.702.77 13.198 6.467-10.593 17.673-11.25 21.717-11.545z" style="fill:#5e50a0;fill-opacity:1;stroke:#4a1767;stroke-width:5.0447351;stroke-linecap:butt;stroke-linejoin:miter;stroke-miterlimit:4;stroke-dasharray:none;stroke-opacity:1" transform="matrix(.03161 0 0 .03367 -3.892 .28)"/><path d="M266.468 15.337c-15.41-4.346-44.408 2.345-55.415 21.931M200.39 32.877c4.63-14.224 31.656-31.225 46.462-31.555M193.94 31.971c4.24-15.067 22.59-33.93 33.905-35.921" style="fill:none;stroke:#4a1767;stroke-width:2.52236755;stroke-linecap:butt;stroke-linejoin:miter;stroke-miterlimit:4;stroke-dasharray:none;stroke-opacity:1" transform="matrix(.03161 0 0 .03367 -3.892 .28)"/><path d="M180.786 4.264c-4.608 4.67-8.68 17.341-4.84 27.225M172.873 9.704c-4.709 7.772-2.581 17.254.698 22.925" style="fill:none;stroke:#4a1767;stroke-width:2.05973;stroke-linecap:butt;stroke-linejoin:miter;stroke-miterlimit:4;stroke-dasharray:none;stroke-opacity:1" transform="matrix(.03161 0 0 .03367 -3.892 .28)"/></g><g style="stroke-width:1.5649"><path d="M168.633 46.582c6.151-10.64 5.598-40.88-.387-44.538-15.203 3.159-35.412 50.042-13.965 70.657" style="opacity:.999;fill:#eaeef0;fill-opacity:1;stroke:none;stroke-width:5.15105;stroke-linecap:butt;stroke-linejoin:miter;stroke-miterlimit:4;stroke-dasharray:none;stroke-opacity:1" transform="matrix(.02475 -.00547 .00514 .02636 -3.079 1.619)"/><path d="M169.123 35.05c-.447 2.57-.331 5.788-.344 7.742-.015 2.16-.146 3.79-.146 3.79s1.397-.853 2.9-2.774c1.55-1.98 2.944-4.758 3.404-7.817 1.73-10.689 1.855-32.176-5.155-36.46a5.503 5.503 0 0 0-1.15-.531 11.648 11.648 0 0 0-.985.16c-8.732 1.815-17.1 14.015-21.618 26.708-4.752 13.35-6.237 29.702.82 42.031 1.12 1.958 2.997 3.247 4.606 3.962 1.592.708 2.826.84 2.826.84s-.232-1.22-.601-2.77c-.359-1.5-.87-3.476-1.72-4.957-3.48-6.083-4.555-13.718-3.858-21.595.698-7.876 3.167-15.936 6.467-22.624 2.64-5.35 5.832-9.822 8.865-12.608 2.022-1.857 3.953-2.917 5.411-3.22l-2.135-.37c-.013-.008.399.346.813 1.176.62 1.245 1.257 3.389 1.698 5.982 1.102 6.482 1.12 15.813-.098 23.335z" style="fill:#bdc1c2;fill-opacity:1;fill-rule:nonzero;stroke:none;stroke-width:5.15105;stroke-linecap:butt;stroke-linejoin:miter;stroke-miterlimit:4;stroke-dasharray:none;stroke-opacity:1" transform="matrix(.02475 -.00547 .00514 .02636 -3.079 1.619)"/><path d="M160.104 23.332c1.195-2.632 2.053-5.336 2.973-7.235.913-1.886 1.844-3.08 1.844-3.08s-1.413.555-3.1 2.143c-1.792 1.689-3.4 4.056-4.603 6.908-2.32 5.3-4.215 11.854-4.773 18.072-.33 3.409.174 6.542 1.082 8.998.867 2.345 1.918 3.613 1.918 3.613s-.328-1.611-.38-3.916c-.062-2.794.226-4.87.517-8.414.521-5.805 2.322-12.066 4.522-17.09z" style="fill:#bdc1c2;fill-rule:nonzero;stroke:none;stroke-width:2.57553;stroke-linecap:butt;stroke-linejoin:miter;stroke-miterlimit:4;stroke-dasharray:none;stroke-opacity:1" transform="matrix(.02475 -.00547 .00514 .02636 -3.079 1.619)"/></g><g style="stroke-width:1.32538"><path d="M213.145 48.978c14.494-7.864 34.376-35.348 34.704-39.105-7.453-.644-40.114 16.343-43.14 25.373-1.514 4.515-.782 8.074 1.182 10.331" style="fill:#eaeef0;fill-opacity:1;stroke:none;stroke-width:4.36263;stroke-linecap:butt;stroke-linejoin:miter;stroke-miterlimit:4;stroke-dasharray:none;stroke-opacity:1" transform="matrix(.02955 -.00453 .00425 .03147 -3.566 1.457)"/><path d="M220.626 40.391c-1.97 1.749-3.884 4.135-5.154 5.704-1.357 1.677-2.327 2.883-2.327 2.883s1.552-.1 3.728-.822c2.229-.738 4.857-2.049 7.077-4.043 6.397-5.713 12.873-13.238 17.704-19.61 3.09-4.076 8.427-11.517 8.68-14.413a2.716 2.716 0 0 0-1.25-2.53 6.292 6.292 0 0 0-1.02-.173c-6.716-.58-24.835 8.727-34.445 15.45-2.843 1.989-5.42 4.044-7.396 6.028-1.548 1.455-2.839 3.494-3.262 5.795-.282 1.985-.05 3.66.299 4.847.34 1.158.736 1.751.736 1.751s.154-.7.549-1.72c.442-1.14 1.008-2.213 1.911-3.706.709-1.114 2.012-2.054 3.303-3.446 2.512-2.523 6.52-5.488 11.01-8.287 4.49-2.8 9.473-5.462 14.003-7.54 3.624-1.661 6.973-2.95 9.46-3.636 1.658-.457 2.985-.6 3.402-.565l-2.27-2.703-.745 1.55c-.862 1.596-2.373 3.97-4.31 6.7-4.841 6.825-12.394 15.977-19.683 22.486z" style="fill:#bdc1c2;fill-opacity:1;fill-rule:nonzero;stroke:none;stroke-width:4.36263;stroke-linecap:butt;stroke-linejoin:miter;stroke-miterlimit:4;stroke-dasharray:none;stroke-opacity:1" transform="matrix(.02955 -.00453 .00425 .03147 -3.566 1.457)"/><path d="M220.06 44.422c-7.012-.843-10.607-11.194-7.253-17.572M227.784 37.257c-6.187 1.342-10.019-9.034-7.632-15.709M234.032 30.37c-4.4-1.57-6.675-9.605-5.144-13.827M239.425 23.514c-2.977-1.549-4.754-6.413-3.772-10.177" style="fill:none;stroke:#bdc1c2;stroke-width:2.67126316;stroke-linecap:butt;stroke-linejoin:miter;stroke-miterlimit:4;stroke-dasharray:none;stroke-opacity:1" transform="matrix(.02955 -.00453 .00425 .03147 -3.566 1.457)"/><path d="M244.468 16.297c-2.01-.76-2.406-4.096-1.87-5.62" style="fill:none;stroke:#bdc1c2;stroke-width:2.18131;stroke-linecap:butt;stroke-linejoin:miter;stroke-miterlimit:4;stroke-dasharray:none;stroke-opacity:1" transform="matrix(.02955 -.00453 .00425 .03147 -3.566 1.457)"/></g></g><g style="stroke-width:1.13535;enable-background:new"><g style="stroke-width:1.13535"><path d="M148.79 124.788c14.684 14.063 18.254 31.927 17.056 40.894-2.486 18.59-12.331 19.364-19.677 20.569-12.408 2.034-15.702-11.96-12.132-20.335 24.052-31.12-12.996-37.54-5.05-84.026.473 22.707 5.438 29.142 19.802 42.898z" style="fill:url(#r);fill-opacity:1;stroke:#4a1767;stroke-width:4.57651362;stroke-linecap:butt;stroke-linejoin:miter;stroke-miterlimit:4;stroke-dasharray:none;stroke-opacity:1" transform="matrix(.0379 0 0 .03413 -4.659 -.287)"/><path d="M155.512 184c8.901-11.054 4.627-30.506-3.592-41.078-9.14-11.757-21.903-22.728-24.164-42.068" style="fill:none;stroke:#4a1767;stroke-width:1.86856;stroke-linecap:butt;stroke-linejoin:miter;stroke-miterlimit:4;stroke-dasharray:none;stroke-opacity:1" transform="matrix(.0379 0 0 .03413 -4.659 -.287)"/></g><g style="stroke-width:1.13535"><path d="M149.295 187.33c-.216-1.804 1.386-8.943 3.82-14.175 2.434-5.231 1.12-10.582-6.96-14.39-8.438-3.978-16.771-.174-18.607 8.716l.35 12.613z" style="fill:#5e50a0;fill-opacity:1;stroke:#4a1767;stroke-width:3.73711;stroke-linecap:butt;stroke-linejoin:miter;stroke-miterlimit:4;stroke-dasharray:none;stroke-opacity:1" transform="matrix(.0379 0 0 .03413 -4.855 -.312)"/><path d="M143.802 175.178c.486-4.622 2.177-6.099 3.492-7.942-.508-4.988-7.02-4.2-8.039-1.89-1.02 2.31-2.13 12.888-1.855 15.15" style="fill:#4a1767;fill-opacity:1;stroke:#4a1767;stroke-width:3.73711;stroke-linecap:butt;stroke-linejoin:miter;stroke-miterlimit:4;stroke-dasharray:none;stroke-opacity:1" transform="matrix(.0379 0 0 .03413 -4.855 -.312)"/><path d="M151.801 184c-.741-3.46 1.538-11.688 2.368-14.158-4.496 8.023-15.79-.803-14.96-3.22-2.106 3.343-2.61 15.958-2.02 19.448" style="fill:url(#s);fill-opacity:1;stroke:#4a1767;stroke-width:3.73711;stroke-linecap:butt;stroke-linejoin:miter;stroke-miterlimit:4;stroke-dasharray:none;stroke-opacity:1" transform="matrix(.0379 0 0 .03413 -4.855 -.312)"/></g></g></svg>