<svg xmlns="http://www.w3.org/2000/svg" xmlns:xlink="http://www.w3.org/1999/xlink" width="32" height="32" viewBox="0 0 8.467 8.467"><defs><linearGradient id="b"><stop offset="0" style="stop-color:#662f89;stop-opacity:1"/><stop offset="1" style="stop-color:#8d5da4;stop-opacity:1"/></linearGradient><linearGradient xlink:href="#b" id="d" x1="15.245" x2="13.771" y1="10.769" y2="16.41" gradientUnits="userSpaceOnUse"/><clipPath id="c" clipPathUnits="userSpaceOnUse"><use xlink:href="#a"/></clipPath></defs><path d="M3.565 8.979c-.215-.98.323-2.252.754-3.103.431-.85 2.176-1.831 2.004-1.142-.172.69-.14 3.028.248 3.803.387.776-3.006.442-3.006.442Z" style="fill:#cc9cdf;fill-opacity:1;stroke:#a46bbd;stroke-width:.26458333;stroke-linecap:butt;stroke-linejoin:miter;stroke-dasharray:none;stroke-opacity:1"/><ellipse cx="4.389" cy="3.609" rx="2.332" ry="2.505" style="fill:#cc9cdf;fill-opacity:1;stroke:#a46bbd;stroke-width:.26458333;stroke-linecap:round;stroke-dasharray:none;stroke-opacity:1"/><path d="M5.041 5.963c-1.357.517-2.596.247-3.221-.27s-.571-1.152-.399-1.25c.173-.096.765.076.744-.247M2.1 2.601S1.11.544 1.25.371c.14-.172 1.81 1.38 1.81 1.38Z" style="fill:#cc9cdf;fill-opacity:1;stroke:#a46bbd;stroke-width:.26458333;stroke-linecap:butt;stroke-linejoin:miter;stroke-dasharray:none;stroke-opacity:1"/><g style="stroke-width:.903591" transform="matrix(1.1714 0 0 1.04556 -2.685 .08)"><g clip-path="url(#c)" style="stroke-width:.717225;stroke-dasharray:none" transform="matrix(.25868 -.0598 .0598 .25868 .73 .955)"><g style="stroke-width:.717225;stroke-dasharray:none"><path id="a" d="M12.334 15.743c0-4.829 3.612-7.71 7.71-6.452.852 5.803-2.03 9.657-7.71 6.452z" style="fill:#fff;fill-opacity:1;stroke:#000;stroke-width:.717225;stroke-linecap:butt;stroke-linejoin:miter;stroke-dasharray:none;stroke-opacity:1"/></g><ellipse cx="13.815" cy="14.302" rx="3.51" ry="4.321" style="fill:url(#d);stroke:none;stroke-width:.717225;stroke-linecap:round;stroke-dasharray:none"/><ellipse cx="13.207" cy="14.931" rx="2.252" ry="3.408" style="fill:#000;fill-opacity:1;stroke:none;stroke-width:.717225;stroke-linecap:round;stroke-dasharray:none"/></g><path d="M4.742 3.76c-.008.311.163.562.163.562s.02-.288.027-.558c.01-.419.158-.809.344-1.055.125-.164.265-.26.374-.275.237-.033.468-.022.67-.037.219-.006.373-.24.373-.24l-.388.05c-.176.014-.43.003-.681.038-.449.063-.865.777-.882 1.515Z" style="fill:#000;fill-rule:nonzero;stroke:none;stroke-width:.190426;stroke-linecap:butt;stroke-linejoin:miter;stroke-dasharray:none;stroke-opacity:1"/><path d="M6.043 2.275c-.02.012-.029.054-.029.054s.04.017.063.001l.016.027c.146-.09.235-.2.284-.315.07-.165-.018-.306-.018-.306s-.049.14-.099.256a.56.56 0 0 1-.233.257z" style="fill:#000;fill-rule:nonzero;stroke:none;stroke-width:.126951;stroke-linecap:butt;stroke-linejoin:miter;stroke-dasharray:none;stroke-opacity:1"/><path d="M5.9 1.854c-.013.175-.078.393-.286.524M5.132 2.713c.118-.16.04-.48-.039-.611" style="fill:none;stroke:#000;stroke-width:.126951;stroke-linecap:butt;stroke-linejoin:miter;stroke-dasharray:none;stroke-opacity:1"/><ellipse cx="1.897" cy="6.267" rx=".357" ry=".174" style="fill:#fff;fill-opacity:1;stroke:none;stroke-width:.127356;stroke-linecap:round;stroke-dasharray:none;stroke-opacity:1" transform="matrix(.7038 -.7104 .62667 .77929 0 0)"/><ellipse cx=".994" cy="6.804" rx=".139" ry=".082" style="fill:#fff;fill-opacity:1;stroke:none;stroke-width:.127357;stroke-linecap:round;stroke-dasharray:none;stroke-opacity:1" transform="matrix(.6301 -.77652 .7006 .71356 0 0)"/></g><path d="M5.892 1.007c-.83-.754-1.81-.732-2.65-.43-.84.3-2.262 1.798-2.1 3.274.667-.894 2.499-1.777 2.93-1.066.28-.96 1.13-1.444 1.605-1.196.474.248.215-.582.215-.582Z" style="display:inline;fill:#243870;fill-opacity:1;stroke:#132248;stroke-width:.26458333;stroke-linecap:butt;stroke-linejoin:miter;stroke-dasharray:none;stroke-opacity:1"/><path d="M6.85 2.052c.41 1.584.464 6.108-.032 7.035-.495.926-1.863 1.422-1.702.829.162-.592.237-1.433.248-1.853.819-.743.819-1.045.894-1.67-.161.582-.55.787-.883.948.065-.549.14-1.346.097-1.799 1.174-.215 1.174-2.283.991-2.531-.183-.248.388-.959.388-.959Z" style="fill:#243870;fill-opacity:1;stroke:#132248;stroke-width:.26458333;stroke-linecap:butt;stroke-linejoin:miter;stroke-dasharray:none;stroke-opacity:1"/><path d="M5.58 2.289C5.35 1.287 5.837.368 6.335.22c.802.654.805 3.173-.37 3.474" style="fill:#cc9cdf"/><path d="M5.39 1.7c-.01.328.19.589.19.589s.067-.315.075-.582c.012-.426.152-.803.334-1.052.122-.166.262-.272.382-.307l-.12-.025c.134.11.254.296.341.528.088.233.145.51.165.798.02.287.002.584-.054.855a1.903 1.903 0 0 1-.28.7c-.187.261-.46.491-.46.491s.41.045.676-.338c.603-.86.49-2.658-.222-3.239a.958.958 0 0 0-.053-.04.69.69 0 0 0-.068.016c-.481.142-.883.831-.905 1.605Z" style="fill:#a46bbd;fill-opacity:1;fill-rule:nonzero;stroke:none;stroke-width:.264583;stroke-linecap:butt;stroke-linejoin:miter;stroke-dasharray:none;stroke-opacity:1"/><path d="M6.317 2.082c-.081.35-.253.64-.253.64s.092-.024.185-.132a.996.996 0 0 0 .197-.482c.042-.211.06-.443.056-.65.003-.292-.18-.573-.18-.573s.035.275.048.575c.004.199-.014.421-.053.622z" style="fill:#a46bbd;fill-rule:nonzero;stroke:none;stroke-width:.132292;stroke-linecap:butt;stroke-linejoin:miter;stroke-dasharray:none;stroke-opacity:1"/><path d="M2.13 5.748c-.04-.016-.162.043-.162.043s-.022.18.08.209c.192.062.45.011.663-.08a.726.726 0 0 0 .451-.428c.055-.164-.005-.26-.005-.26s-.011.11-.103.196c-.107.1-.263.148-.446.249-.092.04-.189.067-.274.079a.491.491 0 0 1-.204-.008z" style="fill:#a46bbd;fill-rule:nonzero;stroke:none;stroke-width:.264583;stroke-linecap:butt;stroke-linejoin:miter;stroke-dasharray:none;stroke-opacity:1"/><path d="M1.96 5.044c-.029.015-.09.07-.09.07s.049.088.142.052c.13-.054.157-.21.152-.326v-.004a.083.083 0 0 0-.017-.039c-.025-.035-.062-.05-.062-.05s-.026.03-.043.067a.099.099 0 0 0-.01.037v-.005a.332.332 0 0 1-.025.15.09.09 0 0 1-.046.048z" style="fill:#a46bbd;fill-rule:nonzero;stroke:none;stroke-width:.132292;stroke-linecap:butt;stroke-linejoin:miter;stroke-dasharray:none;stroke-opacity:1"/><path d="M1.67.533c-.033.28-.12.399-.26.474" style="fill:none;stroke:#a46bbd;stroke-width:.0702478px;stroke-linecap:butt;stroke-linejoin:miter;stroke-opacity:1"/><path d="M1.97.824c-.02.355-.053.582-.3.83" style="fill:none;stroke:#a46bbd;stroke-width:.06614583;stroke-linecap:butt;stroke-linejoin:miter;stroke-opacity:1;stroke-dasharray:none"/><path d="M3.091 2.57C3.317 1.674 4.427.63 5.537.748" style="fill:none;stroke:#132248;stroke-width:.13229167;stroke-linecap:butt;stroke-linejoin:miter;stroke-opacity:1;stroke-dasharray:none"/><path d="M1.518 3.377C1.843 1.98 3.013.652 3.554.544 4.077.44 4.405.5 4.405.5 3.621.776 2.72 1.709 2.412 2.774c-.66.246-.645.408-.894.603Z" style="fill:#ea428b;fill-opacity:1;stroke:none;stroke-width:.0702478px;stroke-linecap:butt;stroke-linejoin:miter;stroke-opacity:1"/><path d="M1.206 3.69C1.163 2.051 2.682.737 3.371.586c-.98.83-1.648 1.82-1.842 2.78-.314.172-.296.247-.323.322Z" style="fill:#652d87;fill-opacity:1;stroke:none;stroke-width:.0702478px;stroke-linecap:butt;stroke-linejoin:miter;stroke-opacity:1"/><path d="M5.49 6.42c1.097-.41 1.66-2.117 1.584-2.787M5.292 8.737c.67-.29 1.965-2.042 1.904-2.788" style="fill:none;stroke:#132248;stroke-width:.13229167;stroke-linecap:butt;stroke-linejoin:miter;stroke-opacity:1;stroke-dasharray:none"/><path d="M7.044 7.716c-.366.564-1.478 1.554-1.752 1.6-.122.396-.381.609-.076.517.304-.09 1.736-1.203 1.767-1.416.03-.214.06-.701.06-.701Z" style="fill:#652d87;fill-opacity:1;stroke:none;stroke-width:.0702478px;stroke-linecap:butt;stroke-linejoin:miter;stroke-opacity:1"/></svg>