<?xml version="1.0" encoding="UTF-8" standalone="no"?>
<!-- Created with Inkscape (http://www.inkscape.org/) -->

<svg
   width="32"
   height="32"
   viewBox="0 0 8.4666662 8.4666662"
   version="1.1"
   id="svg1"
   inkscape:version="1.4 (e7c3feb100, 2024-10-09)"
   sodipodi:docname="twilight sparkle theme icon.svg"
   inkscape:export-filename="twilight sparkle theme icon.png"
   inkscape:export-xdpi="96"
   inkscape:export-ydpi="96"
   xmlns:inkscape="http://www.inkscape.org/namespaces/inkscape"
   xmlns:sodipodi="http://sodipodi.sourceforge.net/DTD/sodipodi-0.dtd"
   xmlns:xlink="http://www.w3.org/1999/xlink"
   xmlns="http://www.w3.org/2000/svg"
   xmlns:svg="http://www.w3.org/2000/svg">
  <sodipodi:namedview
     id="namedview1"
     pagecolor="#ffffff"
     bordercolor="#111111"
     borderopacity="1"
     inkscape:showpageshadow="0"
     inkscape:pageopacity="0"
     inkscape:pagecheckerboard="1"
     inkscape:deskcolor="#d1d1d1"
     inkscape:document-units="mm"
     inkscape:zoom="13.042033"
     inkscape:cx="27.181345"
     inkscape:cy="21.890759"
     inkscape:window-width="1440"
     inkscape:window-height="834"
     inkscape:window-x="0"
     inkscape:window-y="29"
     inkscape:window-maximized="1"
     inkscape:current-layer="layer3" />
  <defs
     id="defs1">
    <inkscape:path-effect
       effect="taper_stroke"
       start_shape="center | center"
       end_shape="center | center"
       id="path-effect50"
       is_visible="true"
       lpeversion="1"
       stroke_width="0.13229167"
       subpath="1"
       attach_start="0.38121128"
       end_offset="0.34800255"
       start_smoothing="0.5"
       end_smoothing="0.5"
       jointype="extrapolated"
       miter_limit="100" />
    <inkscape:path-effect
       effect="taper_stroke"
       start_shape="center | center"
       end_shape="center | center"
       id="path-effect49"
       is_visible="true"
       lpeversion="1"
       stroke_width="0.12695099"
       subpath="1"
       attach_start="0.052767998"
       end_offset="0.46241208"
       start_smoothing="0.5"
       end_smoothing="0.5"
       jointype="extrapolated"
       miter_limit="100" />
    <inkscape:path-effect
       effect="taper_stroke"
       start_shape="center | center"
       end_shape="center | center"
       id="path-effect48"
       is_visible="true"
       lpeversion="1"
       stroke_width="0.19042601"
       subpath="1"
       attach_start="0.2"
       end_offset="0.46495247"
       start_smoothing="0.5"
       end_smoothing="0.5"
       jointype="extrapolated"
       miter_limit="100" />
    <inkscape:path-effect
       effect="taper_stroke"
       start_shape="center | center"
       end_shape="center | center"
       id="path-effect46"
       is_visible="true"
       lpeversion="1"
       stroke_width="0.26458299"
       subpath="1"
       attach_start="0.2"
       end_offset="0.2"
       start_smoothing="0.5"
       end_smoothing="0.5"
       jointype="extrapolated"
       miter_limit="100" />
    <inkscape:path-effect
       effect="taper_stroke"
       start_shape="center | center"
       end_shape="center | center"
       id="path-effect45"
       is_visible="true"
       lpeversion="1"
       stroke_width="0.13229167"
       subpath="1"
       attach_start="0.2"
       end_offset="0.2"
       start_smoothing="0.5"
       end_smoothing="0.5"
       jointype="extrapolated"
       miter_limit="100" />
    <inkscape:path-effect
       effect="taper_stroke"
       start_shape="center | center"
       end_shape="center | center"
       id="path-effect44"
       is_visible="true"
       lpeversion="1"
       stroke_width="0.26458299"
       subpath="1"
       attach_start="0.12995466"
       end_offset="0.50489057"
       start_smoothing="0.5"
       end_smoothing="0.5"
       jointype="extrapolated"
       miter_limit="100" />
    <linearGradient
       id="linearGradient42"
       inkscape:collect="always">
      <stop
         style="stop-color:#662f89;stop-opacity:1;"
         offset="0"
         id="stop42" />
      <stop
         style="stop-color:#8d5da4;stop-opacity:1;"
         offset="1"
         id="stop43" />
    </linearGradient>
    <inkscape:path-effect
       effect="simplify"
       id="path-effect17"
       is_visible="true"
       lpeversion="1.3"
       threshold="100"
       steps="1"
       smooth_angles="360"
       helper_size="0"
       simplify_individual_paths="false"
       simplify_just_coalesce="false" />
    <inkscape:path-effect
       effect="simplify"
       id="path-effect16"
       is_visible="true"
       lpeversion="1.3"
       threshold="100"
       steps="1"
       smooth_angles="360"
       helper_size="0"
       simplify_individual_paths="false"
       simplify_just_coalesce="false" />
    <inkscape:path-effect
       effect="simplify"
       id="path-effect15"
       is_visible="true"
       lpeversion="1.3"
       threshold="100"
       steps="1"
       smooth_angles="360"
       helper_size="0"
       simplify_individual_paths="false"
       simplify_just_coalesce="false" />
    <inkscape:path-effect
       effect="simplify"
       id="path-effect14"
       is_visible="true"
       lpeversion="1.3"
       threshold="100"
       steps="1"
       smooth_angles="360"
       helper_size="0"
       simplify_individual_paths="false"
       simplify_just_coalesce="false" />
    <inkscape:path-effect
       effect="simplify"
       id="path-effect13"
       is_visible="true"
       lpeversion="1.3"
       threshold="100"
       steps="1"
       smooth_angles="360"
       helper_size="0"
       simplify_individual_paths="false"
       simplify_just_coalesce="false" />
    <inkscape:path-effect
       effect="simplify"
       id="path-effect12"
       is_visible="true"
       lpeversion="1.3"
       threshold="100"
       steps="1"
       smooth_angles="360"
       helper_size="0"
       simplify_individual_paths="false"
       simplify_just_coalesce="false" />
    <inkscape:path-effect
       effect="simplify"
       id="path-effect11"
       is_visible="true"
       lpeversion="1.3"
       threshold="100"
       steps="1"
       smooth_angles="360"
       helper_size="0"
       simplify_individual_paths="false"
       simplify_just_coalesce="false" />
    <inkscape:path-effect
       effect="simplify"
       id="path-effect9"
       is_visible="true"
       lpeversion="1.3"
       threshold="100"
       steps="1"
       smooth_angles="360"
       helper_size="0"
       simplify_individual_paths="false"
       simplify_just_coalesce="false" />
    <inkscape:path-effect
       effect="simplify"
       id="path-effect8"
       is_visible="true"
       lpeversion="1.3"
       threshold="100"
       steps="1"
       smooth_angles="360"
       helper_size="0"
       simplify_individual_paths="false"
       simplify_just_coalesce="false" />
    <inkscape:path-effect
       effect="simplify"
       id="path-effect7"
       is_visible="true"
       lpeversion="1.3"
       threshold="100"
       steps="1"
       smooth_angles="360"
       helper_size="0"
       simplify_individual_paths="false"
       simplify_just_coalesce="false" />
    <inkscape:path-effect
       effect="simplify"
       id="path-effect6"
       is_visible="true"
       lpeversion="1.3"
       threshold="100"
       steps="1"
       smooth_angles="360"
       helper_size="0"
       simplify_individual_paths="false"
       simplify_just_coalesce="false" />
    <inkscape:path-effect
       effect="simplify"
       id="path-effect5"
       is_visible="true"
       lpeversion="1.3"
       threshold="100"
       steps="1"
       smooth_angles="360"
       helper_size="0"
       simplify_individual_paths="false"
       simplify_just_coalesce="false" />
    <inkscape:path-effect
       effect="simplify"
       id="path-effect4"
       is_visible="true"
       lpeversion="1.3"
       threshold="100"
       steps="1"
       smooth_angles="360"
       helper_size="0"
       simplify_individual_paths="false"
       simplify_just_coalesce="false" />
    <inkscape:path-effect
       effect="simplify"
       id="path-effect3"
       is_visible="true"
       lpeversion="1.3"
       threshold="100"
       steps="1"
       smooth_angles="360"
       helper_size="0"
       simplify_individual_paths="false"
       simplify_just_coalesce="false" />
    <inkscape:path-effect
       effect="simplify"
       id="path-effect2"
       is_visible="true"
       lpeversion="1.3"
       threshold="100"
       steps="1"
       smooth_angles="360"
       helper_size="0"
       simplify_individual_paths="false"
       simplify_just_coalesce="false" />
    <inkscape:path-effect
       effect="simplify"
       id="path-effect1"
       is_visible="true"
       lpeversion="1.3"
       threshold="100"
       steps="1"
       smooth_angles="360"
       helper_size="0"
       simplify_individual_paths="false"
       simplify_just_coalesce="false" />
    <clipPath
       clipPathUnits="userSpaceOnUse"
       id="clipPath22">
      <use
         x="0"
         y="0"
         xlink:href="#g21"
         id="use22" />
    </clipPath>
    <linearGradient
       inkscape:collect="always"
       xlink:href="#linearGradient42"
       id="linearGradient43"
       x1="15.245221"
       y1="10.769039"
       x2="13.771054"
       y2="16.409723"
       gradientUnits="userSpaceOnUse" />
    <inkscape:path-effect
       effect="fill_between_many"
       method="bsplinespiro"
       autoreverse="false"
       close="false"
       join="false"
       linkedpaths="#path25,0,1"
       id="path-effect47" />
  </defs>
  <g
     inkscape:groupmode="layer"
     id="layer2"
     inkscape:label="Layer 1">
    <path
       style="fill:#cc9cdf;fill-opacity:1;stroke:#a46bbd;stroke-width:0.26458333;stroke-linecap:butt;stroke-linejoin:miter;stroke-dasharray:none;stroke-opacity:1"
       d="M 3.5651395,8.9788121 C 3.3496887,7.9985106 3.8883157,6.7273509 4.3192175,5.8763198 4.7501191,5.025289 6.4952712,4.0449878 6.3229105,4.7344305 6.1505498,5.4238731 6.1828672,7.7615144 6.5706788,8.537138 6.9584904,9.3127607 3.5651395,8.9788121 3.5651395,8.9788121 Z"
       id="path18"
       sodipodi:nodetypes="csssc" />
    <ellipse
       style="fill:#cc9cdf;fill-opacity:1;stroke:#a46bbd;stroke-width:0.26458333;stroke-linecap:round;stroke-dasharray:none;stroke-opacity:1"
       id="path19"
       cx="4.3892388"
       cy="3.6086998"
       rx="2.3322554"
       ry="2.5046163" />
    <path
       style="fill:#cc9cdf;fill-opacity:1;stroke:#a46bbd;stroke-width:0.26458333;stroke-linecap:butt;stroke-linejoin:miter;stroke-dasharray:none;stroke-opacity:1"
       d="M 5.0409779,5.9625003 C 3.6836374,6.4795823 2.4447952,6.2102686 1.8199877,5.6931866 1.1951803,5.1761046 1.249043,4.5405247 1.4214037,4.4435717 1.5937644,4.3466189 2.1862542,4.5189796 2.1647091,4.1958033"
       id="path20" />
    <path
       style="fill:#cc9cdf;fill-opacity:1;stroke:#a46bbd;stroke-width:0.26458333;stroke-linecap:butt;stroke-linejoin:miter;stroke-dasharray:none;stroke-opacity:1"
       d="m 2.1000738,2.6014669 c 0,0 -0.9910739,-2.05755563 -0.8510308,-2.22991633 C 1.3890861,0.1991899 3.0588301,1.7504361 3.0588301,1.7504361 Z"
       id="path24" />
    <g
       inkscape:groupmode="layer"
       id="layer3"
       inkscape:label="Layer 2"
       transform="matrix(1.1714023,0,0,1.0455631,-2.6853166,0.07998543)"
       style="stroke-width:0.903591">
      <g
         id="g22"
         clip-path="url(#clipPath22)"
         transform="matrix(0.25868177,-0.05980057,0.05980057,0.25868177,0.72922589,0.95512702)"
         style="stroke-width:0.717225;stroke-dasharray:none">
        <g
           inkscape:label="Clip"
           id="g21"
           style="stroke-width:0.717225;stroke-dasharray:none">
          <path
             style="fill:#ffffff;fill-opacity:1;stroke:#000000;stroke-width:0.717225;stroke-linecap:butt;stroke-linejoin:miter;stroke-dasharray:none;stroke-opacity:1"
             d="m 12.334478,15.742689 c 0,-4.828299 3.61108,-7.709049 7.709048,-6.4512569 0.852053,5.8020739 -2.028697,9.6565979 -7.709048,6.4512569 z"
             id="path21"
             sodipodi:nodetypes="ccc" />
        </g>
        <ellipse
           style="fill:url(#linearGradient43);stroke:none;stroke-width:0.717225;stroke-linecap:round;stroke-dasharray:none"
           id="path22"
           cx="13.815427"
           cy="14.302314"
           rx="3.5096457"
           ry="4.3211246" />
        <ellipse
           style="fill:#000000;fill-opacity:1;stroke:none;stroke-width:0.717225;stroke-linecap:round;stroke-dasharray:none"
           id="path23"
           cx="13.206818"
           cy="14.931211"
           rx="2.2518537"
           ry="3.408211" />
      </g>
      <path
         style="fill:#000000;fill-rule:nonzero;stroke:none;stroke-width:0.190426;stroke-linecap:butt;stroke-linejoin:miter;stroke-dasharray:none;stroke-opacity:1"
         d="m 4.7417757,3.7596701 c -0.00757,0.3117422 0.1627509,0.5621109 0.1627509,0.5621109 0,0 0.021245,-0.2880174 0.02762,-0.5575441 C 4.9422014,3.3451048 5.0901266,2.955447 5.2763665,2.7089574 5.4005265,2.5446309 5.5406104,2.4492268 5.6502177,2.4339327 5.8869808,2.400896 6.1179347,2.4124066 6.3194939,2.3969948 6.5388335,2.3908706 6.6927687,2.1565 6.6927687,2.1565 c 0,0 -0.1890226,0.024777 -0.387793,0.050623 -0.176395,0.013488 -0.4302399,0.00321 -0.6810741,0.038211 C 5.1750162,2.307969 4.759461,3.0224372 4.7417757,3.7596701 Z"
         id="path33"
         inkscape:path-effect="#path-effect48"
         inkscape:original-d="M 4.9045266,4.321781 C 4.6459857,3.3845697 5.1738403,2.4042685 5.6370596,2.3396333 6.100279,2.274998 6.520408,2.3719509 6.6927687,2.1565" />
      <path
         style="fill:#000000;fill-rule:nonzero;stroke:none;stroke-width:0.126951;stroke-linecap:butt;stroke-linejoin:miter;stroke-dasharray:none;stroke-opacity:1"
         d="m 6.0427817,2.2747448 c -0.020697,0.011797 -0.028683,0.054116 -0.028683,0.054116 0,0 0.039899,0.016685 0.062901,0.00156 l 0.016127,0.026241 C 6.2385967,2.2672584 6.3275041,2.156976 6.3768447,2.0420025 6.4472823,1.877459 6.3588199,1.7363709 6.3588199,1.7363709 c 0,0 -0.048757,0.1397034 -0.098637,0.2555664 -0.038702,0.090183 -0.109242,0.180183 -0.2335279,0.2565668 z"
         id="path34"
         inkscape:path-effect="#path-effect49"
         inkscape:original-d="M 6.0140986,2.3288607 C 6.3157299,2.1672726 6.380365,1.9195041 6.3588199,1.7363709" />
      <path
         style="fill:none;stroke:#000000;stroke-width:0.126951;stroke-linecap:butt;stroke-linejoin:miter;stroke-dasharray:none;stroke-opacity:1"
         d="M 5.8998132,1.8538142 C 5.8868061,2.0286636 5.82178,2.2472254 5.613692,2.3783625"
         id="path41" />
      <path
         style="fill:none;stroke:#000000;stroke-width:0.126951;stroke-linecap:butt;stroke-linejoin:miter;stroke-dasharray:none;stroke-opacity:1"
         d="M 5.1324886,2.7134906 C 5.2495379,2.5532118 5.171505,2.2326546 5.093472,2.1015176"
         id="path42"
         sodipodi:nodetypes="cc" />
      <ellipse
         style="fill:#ffffff;fill-opacity:1;stroke:none;stroke-width:0.127356;stroke-linecap:round;stroke-dasharray:none;stroke-opacity:1"
         id="path43"
         cx="1.8967192"
         cy="6.2674847"
         rx="0.35695094"
         ry="0.17364147"
         transform="matrix(0.70380042,-0.71039775,0.62666796,0.77928638,0,0)" />
      <ellipse
         style="fill:#ffffff;fill-opacity:1;stroke:none;stroke-width:0.127357;stroke-linecap:round;stroke-dasharray:none;stroke-opacity:1"
         id="path44"
         cx="0.99363381"
         cy="6.8035283"
         rx="0.13884389"
         ry="0.082415335"
         transform="matrix(0.6300924,-0.77652017,0.70059483,0.71355931,0,0)" />
    </g>
    <path
       style="display:inline;fill:#243870;fill-opacity:1;stroke:#132248;stroke-width:0.26458333;stroke-linecap:butt;stroke-linejoin:miter;stroke-dasharray:none;stroke-opacity:1"
       d="M 5.8920087,1.0071306 C 5.062523,0.25305261 4.0822215,0.2745977 3.2419634,0.57622889 2.401705,0.87786005 0.97972941,2.3752435 1.1413175,3.851082 1.8092152,2.956961 3.6405474,2.0736123 4.071449,2.7846003 4.3515352,1.8258438 5.202566,1.3410794 5.6765578,1.5888479 6.1505498,1.8366163 5.8920087,1.0071306 5.8920087,1.0071306 Z"
       id="path27" />
    <path
       style="fill:#243870;fill-opacity:1;stroke:#132248;stroke-width:0.26458333;stroke-linecap:butt;stroke-linejoin:miter;stroke-dasharray:none;stroke-opacity:1"
       d="M 6.8507651,2.0520672 C 7.2601212,3.6356311 7.3139846,8.1600993 6.8184474,9.0865375 6.3229105,10.012976 4.9547974,10.508513 5.1163855,9.9160232 5.2779737,9.3235337 5.3533816,8.483275 5.3641544,8.0631463 6.1828675,7.3198405 6.1828672,7.0182094 6.2582752,6.3934021 6.096687,6.9751192 5.7088755,7.1797978 5.3749267,7.3413856 5.439562,6.791986 5.5149697,5.994818 5.4718794,5.542371 6.6460867,5.3269201 6.6460867,3.2585921 6.4629535,3.0108235 6.2798203,2.7630552 6.8507651,2.0520672 6.8507651,2.0520672 Z"
       id="path28"
       sodipodi:nodetypes="cssccccsc" />
    <path
       inkscape:original-d="M 0,0"
       inkscape:path-effect="#path-effect47"
       d="M 5.5808632,2.2885126 C 5.3501579,1.2872167 5.8355076,0.36781836 6.3336828,0.22073498 7.1360788,0.87537756 7.1391076,3.3936028 5.9634852,3.6952339"
       id="path47"
       style="fill:#cc9cdf" />
    <path
       style="fill:#a46bbd;fill-opacity:1;fill-rule:nonzero;stroke:none;stroke-width:0.264583;stroke-linecap:butt;stroke-linejoin:miter;stroke-dasharray:none;stroke-opacity:1"
       d="m 5.3905061,1.699209 c -0.00961,0.3286938 0.1903571,0.5893036 0.1903571,0.5893036 0,0 0.06626,-0.314677 0.074112,-0.5815494 C 5.6674509,1.2814664 5.8068339,0.90365832 5.989146,0.6547342 6.1106874,0.4887848 6.2505131,0.38322728 6.3711425,0.34761211 L 6.2500535,0.3232395 c 0.1347525,0.10993917 0.254473,0.29550413 0.3423607,0.52804036 0.087888,0.23253624 0.1445246,0.51026274 0.164191,0.79745254 0.019666,0.2871898 0.0025,0.5839356 -0.053414,0.8549804 -0.055919,0.2710448 -0.1509709,0.515873 -0.2810245,0.7012015 -0.1857959,0.2602523 -0.4586811,0.4903196 -0.4586811,0.4903196 0,0 0.4103258,0.044473 0.6752581,-0.3383375 C 7.241745,2.4976091 7.1294041,0.6991976 6.4173121,0.11823046 A 0.9579842,0.9579842 0 0 0 6.3637358,0.07756703 0.69045527,0.69045527 0 0 0 6.2962231,0.09385785 C 5.8147494,0.2360102 5.4131925,0.92544982 5.3905061,1.699209 Z"
       id="path25"
       sodipodi:nodetypes="ccc"
       inkscape:path-effect="#path-effect46"
       inkscape:original-d="M 5.5808632,2.2885126 C 5.3501579,1.2872167 5.8355076,0.36781836 6.3336828,0.22073498 7.1360788,0.87537756 7.1391076,3.3936028 5.9634852,3.6952339"
       inkscape:linked-fill="path47" />
    <path
       style="fill:#a46bbd;fill-rule:nonzero;stroke:none;stroke-width:0.132292;stroke-linecap:butt;stroke-linejoin:miter;stroke-dasharray:none;stroke-opacity:1"
       d="m 6.3165593,2.0820182 c -0.080566,0.350302 -0.2522332,0.6399536 -0.2522332,0.6399536 0,0 0.091535,-0.02363 0.1841901,-0.1320176 0.1003274,-0.1173633 0.165246,-0.2872561 0.1978109,-0.4822184 0.041797,-0.2109003 0.059747,-0.4429921 0.056065,-0.6500319 0.00251,-0.291484 -0.1804445,-0.57279302 -0.1804445,-0.57279302 0,0 0.035135,0.27459742 0.048174,0.57514512 0.00353,0.1984839 -0.01379,0.4212766 -0.053562,0.6219622 z"
       id="path26"
       inkscape:path-effect="#path-effect50"
       inkscape:original-d="M 6.0643261,2.7219718 C 6.4731916,2.4938429 6.5232503,1.1449757 6.3219478,0.88491088" />
    <path
       style="fill:#a46bbd;fill-rule:nonzero;stroke:none;stroke-width:0.264583;stroke-linecap:butt;stroke-linejoin:miter;stroke-dasharray:none;stroke-opacity:1"
       d="m 2.1302919,5.7484275 c -0.040253,-0.016433 -0.1625552,0.04242 -0.1625552,0.04242 0,0 -0.021706,0.1792239 0.080732,0.2091932 0.1920223,0.062445 0.4499036,0.011043 0.662879,-0.079648 0.2260095,-0.074638 0.3942108,-0.2581851 0.4508623,-0.428168 0.054726,-0.1642046 -0.00556,-0.2598962 -0.00556,-0.2598962 0,0 -0.011088,0.1090206 -0.1028798,0.1957638 -0.1064,0.1005484 -0.2622933,0.14821 -0.4460807,0.2488694 -0.092076,0.039209 -0.1883974,0.066706 -0.2737298,0.078727 -0.085332,0.012021 -0.1593633,0.00715 -0.2036654,-0.00726 z"
       id="path29"
       sodipodi:nodetypes="cc"
       inkscape:path-effect="#path-effect44"
       inkscape:original-d="M 1.9677367,5.7908473 C 2.183738,6.0931861 3.2219906,5.6861886 3.1566476,5.232328" />
    <path
       style="fill:#a46bbd;fill-rule:nonzero;stroke:none;stroke-width:0.132292;stroke-linecap:butt;stroke-linejoin:miter;stroke-dasharray:none;stroke-opacity:1"
       d="m 1.9605643,5.0442916 c -0.029099,0.014746 -0.091039,0.069143 -0.091039,0.069143 0,0 0.049276,0.088631 0.1419929,0.052942 C 2.1425909,5.1116714 2.1689292,4.955097 2.1638114,4.8402294 l -3.445e-4,-0.00441 c -0.00151,-0.013696 -0.00789,-0.02687 -0.016237,-0.038459 0,0 0,0 0,0 -0.025119,-0.034864 -0.062253,-0.050193 -0.062253,-0.050193 0,0 -0.02586,0.030009 -0.042638,0.066404 0,0 0,0 0,0 -0.00566,0.012267 -0.00998,0.025013 -0.010343,0.036954 l -3.444e-4,-0.00441 c 0.00246,0.055257 -0.00576,0.1139264 -0.024209,0.150725 -0.012302,0.024532 -0.026352,0.038882 -0.046878,0.047449 z"
       id="path30"
       inkscape:path-effect="#path-effect45"
       inkscape:original-d="M 1.8695256,5.113435 C 2.1065215,5.1565253 2.117294,4.8872118 2.0849764,4.7471686" />
    <path
       style="fill:none;stroke:#a46bbd;stroke-width:0.0702478px;stroke-linecap:butt;stroke-linejoin:miter;stroke-opacity:1"
       d="M 1.6691721,0.53313871 C 1.6368545,0.81322478 1.5506742,0.93172278 1.4106311,1.0071306"
       id="path31" />
    <path
       style="fill:none;stroke:#a46bbd;stroke-width:0.06614583;stroke-linecap:butt;stroke-linejoin:miter;stroke-opacity:1;stroke-dasharray:none"
       d="M 1.9708033,0.82399739 C 1.9492583,1.1794913 1.9169406,1.4057147 1.6691721,1.6534832"
       id="path32" />
    <path
       style="fill:none;stroke:#132248;stroke-width:0.13229167;stroke-linecap:butt;stroke-linejoin:miter;stroke-opacity:1;stroke-dasharray:none"
       d="M 3.0911478,2.5691492 C 3.3173713,1.6750282 4.4269429,0.6300916 5.5365148,0.74858954"
       id="path35" />
    <path
       style="fill:#ea428b;fill-opacity:1;stroke:none;stroke-width:0.0702478px;stroke-linecap:butt;stroke-linejoin:miter;stroke-opacity:1"
       d="M 1.5183566,3.37709 C 1.8431788,1.9794461 3.0125958,0.65157874 3.554367,0.54391127 4.0771395,0.44001946 4.4053977,0.50082109 4.4053977,0.50082109 3.6210475,0.77636956 2.7199209,1.7094455 2.4124776,2.7738277 1.751706,3.0202566 1.7666499,3.1822209 1.5183566,3.37709 Z"
       id="path36"
       sodipodi:nodetypes="csccc" />
    <path
       style="fill:#652d87;fill-opacity:1;stroke:none;stroke-width:0.0702478px;stroke-linecap:butt;stroke-linejoin:miter;stroke-opacity:1"
       d="M 1.2059528,3.6894936 C 1.1628627,2.0520672 2.6817911,0.73781703 3.3712338,0.58700142 2.3909325,1.4164873 1.7230349,2.4075612 1.5291291,3.3663174 1.2152023,3.5386781 1.2334429,3.614086 1.2059528,3.6894936 Z"
       id="path37"
       sodipodi:nodetypes="cccc" />
    <path
       style="fill:none;stroke:#132248;stroke-width:0.13229167;stroke-linecap:butt;stroke-linejoin:miter;stroke-opacity:1;stroke-dasharray:none"
       d="M 5.4899045,6.4209309 C 6.5868013,6.0095948 7.150484,4.3033109 7.0743107,3.6329853"
       id="path38" />
    <path
       style="fill:none;stroke:#132248;stroke-width:0.13229167;stroke-linecap:butt;stroke-linejoin:miter;stroke-opacity:1;stroke-dasharray:none"
       d="M 5.2918537,8.7366016 C 5.9621795,8.4471428 7.2571266,6.6951551 7.1961879,5.9486561"
       id="path39" />
    <path
       style="fill:#652d87;fill-opacity:1;stroke:none;stroke-width:0.0702478px;stroke-linecap:butt;stroke-linejoin:miter;stroke-opacity:1"
       d="M 7.0438414,7.7158787 C 6.6782093,8.2795615 5.5660779,9.2698157 5.2918537,9.3155195 5.1699762,9.7116209 4.9109869,9.9249062 5.2156803,9.8334984 5.520374,9.7420902 6.9524332,8.6299588 6.9829027,8.4166736 7.0133719,8.2033881 7.0438414,7.7158787 7.0438414,7.7158787 Z"
       id="path40" />
  </g>
  <g
     inkscape:label="sketch"
     inkscape:groupmode="layer"
     id="layer1"
     style="display:none">
    <path
       style="fill:none;stroke:#000000;stroke-width:0.264583px;stroke-linecap:butt;stroke-linejoin:miter;stroke-opacity:1"
       d="M 16.391872,5.5180557 C 15.825383,4.2367266 14.13283,5.2195932 13.28695,5.7018561 11.034955,6.9857878 8.5584496,8.6183786 7.9602743,11.315692 c -0.7074119,3.189886 0.6922939,6.443198 2.7872397,8.88466 1.808553,2.107699 4.706068,3.149283 7.474363,2.647033 3.540671,-0.642382 6.530158,-3.583111 7.114969,-7.192647 0.444799,-2.745364 0.0039,-5.6759342 -1.575008,-8.026019 C 22.512095,5.76852 20.505376,3.7859167 18.123088,4.1333304 15.465152,4.5209425 13.313722,6.3576374 11.382135,8.0836053 9.1862112,10.045771 7.6209806,13.009599 8.1905137,16.043187 c 0.6312267,3.362196 3.7731903,6.081148 7.2275833,6.029036"
       id="path1"
       inkscape:path-effect="#path-effect1"
       inkscape:original-d="M 16.391872,5.5180557 C 15.911194,3.4738865 10.96626,7.1366331 10.305781,7.7090486 9.4094772,8.4858446 8.6210988,9.4331715 8.1959359,10.549224 c -1.0069589,2.643267 -0.181501,6.233542 1.5418096,8.43938 1.0922035,1.39802 2.0572175,2.448696 3.6516545,3.245915 4.232987,2.116493 9.783946,-0.423655 11.441851,-4.706577 0.738737,-1.908404 0.811209,-4.167255 0.486887,-6.167239 C 24.849806,8.4726509 22.152228,4.5339949 18.988604,4.1385418 17.178031,3.9122201 15.085751,5.151121 13.713992,6.1672387 11.41291,7.8717438 9.0326174,9.9748193 8.2770836,12.902513 c -1.1681462,4.526567 2.4011384,9.16971 7.1410134,9.16971" />
    <path
       style="fill:none;stroke:#000000;stroke-width:0.264583px;stroke-linecap:butt;stroke-linejoin:miter;stroke-opacity:1"
       d="m 8.7639709,16.635315 c -0.9351695,0.0407 -2.170043,-0.69842 -2.8348729,0.08755 -0.5349012,0.632367 -0.214263,1.708937 0.1416915,2.378405 0.3911289,0.735623 0.8755496,1.426563 1.3948157,2.078326 1.4361594,1.802614 3.8830498,2.291949 6.0624938,2.286353 1.931817,-0.005 3.888588,0.01175 5.78803,-0.352339 0.738392,-0.141537 1.49243,-0.34639 2.106911,-0.797944"
       id="path2"
       inkscape:path-effect="#path-effect2"
       inkscape:original-d="m 8.7639709,16.635315 c -0.8599043,0.05555 -2.5558882,-0.649723 -3.0836192,0.40574 -0.06869,0.13738 0.061873,0.371239 0.081148,0.486887 0.1597914,0.958748 0.089781,1.448577 0.7303309,2.272141 0.3443018,0.442673 0.6224056,0.940302 0.9737746,1.379514 2.1205315,2.650664 6.2934358,2.355293 9.2508578,2.190992 1.395631,-0.07753 3.540759,-0.180558 4.706577,-1.054922" />
    <path
       style="fill:none;stroke:#000000;stroke-width:0.264583px;stroke-linecap:butt;stroke-linejoin:miter;stroke-opacity:1"
       d="m 7.2221613,18.420569 c 0.1084314,-0.154752 0.2356279,-0.301208 0.297609,-0.483275 0.097654,-0.286855 0.1052708,-0.59609 0.1081303,-0.896239"
       id="path3"
       inkscape:path-effect="#path-effect3"
       inkscape:original-d="M 7.2221613,18.420569 C 7.4189642,18.127681 7.6279006,18.029506 7.6279006,17.041055" />
    <path
       style="fill:none;stroke:#000000;stroke-width:0.264583px;stroke-linecap:butt;stroke-linejoin:miter;stroke-opacity:1"
       d="m 7.3033093,21.179597 c 0.6085063,0.268367 1.2953076,0.295596 1.9471229,0.223913 0.3579326,-0.03936 0.7132409,-0.110684 1.0553488,-0.223913"
       id="path4"
       inkscape:path-effect="#path-effect4"
       inkscape:original-d="m 7.3033093,21.179597 c 0.8506311,0.389262 2.1393858,0.287695 3.0024717,0" />
    <path
       style="fill:none;stroke:#000000;stroke-width:0.264583px;stroke-linecap:butt;stroke-linejoin:miter;stroke-opacity:1"
       d="M 19.718935,9.6565975 C 19.050973,8.9325576 17.975722,8.6078799 17.030297,8.9357127 c -1.491503,0.5171898 -2.582571,1.8065153 -3.29748,3.1588003 -0.661485,1.251233 -2.230789,3.512579 -0.911452,4.135063 1.371454,0.647074 3.007038,0.948573 4.469765,0.450864 1.139265,-0.387648 1.857826,-1.458661 2.36652,-2.478143 0.462368,-0.926638 1.037988,-1.991523 0.749408,-3.026088 -0.149846,-0.537199 -0.417813,-1.034782 -0.688123,-1.5196115 z"
       id="path5"
       inkscape:path-effect="#path-effect5"
       inkscape:original-d="m 19.718935,9.6565975 c -3.191966,-3.1919658 -7.639912,3.3948075 -6.89757,6.5729785 1.44467,0.71985 3.778405,1.07169 5.193464,0.08115 1.152995,-0.807096 2.835411,-3.828247 2.353289,-5.274612 -0.153737,-0.46121 -0.41283,-0.965896 -0.649183,-1.3795145 z" />
    <path
       style="fill:none;stroke:#000000;stroke-width:0.264583px;stroke-linecap:butt;stroke-linejoin:miter;stroke-opacity:1"
       d="m 14.93121,11.198407 c 0.215947,0.260606 0.306463,-0.263903 0.58036,-0.125515 0.556478,0.281164 0.886995,0.860061 1.111518,1.415111 0.384356,0.950178 0.609772,2.014426 0.397684,3.028379 -0.07312,0.349589 -0.210593,0.699708 -0.466605,0.956638"
       id="path6"
       inkscape:path-effect="#path-effect6"
       inkscape:original-d="m 14.93121,11.198407 c 0.199334,0.245533 0.324591,-0.216394 0.486887,-0.162296 1.33761,0.445871 2.339287,4.233692 1.13607,5.436909" />
    <path
       style="fill:none;stroke:#000000;stroke-width:0.264583px;stroke-linecap:butt;stroke-linejoin:miter;stroke-opacity:1"
       d="m 13.876287,12.415625 c 0.307829,-0.103515 0.594582,0.139125 0.765016,0.369687 0.429633,0.581204 0.683463,1.279433 0.809992,1.983927 0.08456,0.470825 0.18657,0.976096 0.03062,1.439869 -0.04517,0.134314 -0.151671,0.269707 -0.307259,0.263912"
       id="path7"
       inkscape:path-effect="#path-effect7"
       inkscape:original-d="m 13.876287,12.415625 c 1.175199,-0.395351 2.284483,4.057395 1.298367,4.057395" />
    <path
       style="fill:none;stroke:#000000;stroke-width:0.264583px;stroke-linecap:butt;stroke-linejoin:miter;stroke-opacity:1"
       d="m 5.2746121,1.5418097 c 1.0436663,1.3547561 1.3888483,3.0729519 1.8556727,4.6807301 0.3822198,1.3163935 0.736533,2.741323 1.7148341,3.7586494"
       id="path8"
       inkscape:path-effect="#path-effect8"
       inkscape:original-d="M 5.2746121,1.5418097 C 7.0938598,3.8256339 6.9961743,8.1322449 8.8451189,9.9811892" />
    <path
       style="fill:none;stroke:#000000;stroke-width:0.264583px;stroke-linecap:butt;stroke-linejoin:miter;stroke-opacity:1"
       d="m 5.7614994,1.5418097 c 0.6982226,0.9726416 1.7214596,1.6406929 2.6867721,2.320108 1.1611362,0.8172416 2.4442195,1.4981919 3.4369895,2.5238117 0.172656,0.1783696 0.336184,0.3703905 0.449217,0.5929882"
       id="path9"
       inkscape:path-effect="#path-effect9"
       inkscape:original-d="M 5.7614994,1.5418097 C 7.0114315,3.4125841 11.575007,5.459777 12.334478,6.9787176" />
    <path
       style="fill:none;stroke:#000000;stroke-width:0.264583px;stroke-linecap:butt;stroke-linejoin:miter;stroke-opacity:1"
       d="m 21.585336,7.6279006 c -0.3629,-1.4880358 0.187408,-2.9641808 0.738247,-4.3804095 0.247244,-0.6356753 0.809052,-1.0168549 1.358686,-1.367822 0.610797,-0.3900219 1.377065,-1.60481521 1.893393,-1.08616881 0.505487,0.50775661 0.363091,1.38111571 0.509106,2.05886591 0.467266,2.1688783 0.649487,4.4612268 -0.02399,6.6113825 -0.37871,1.2090733 -0.773939,2.4499533 -1.492445,3.4952413 -0.197589,0.287453 -0.452652,0.560323 -0.792004,0.673854"
       id="path11"
       inkscape:path-effect="#path-effect11"
       inkscape:original-d="m 21.585336,7.6279006 c -0.301204,-1.3118531 -0.141464,-2.701232 0.486887,-3.8950981 0.09609,-0.1825755 0.465319,-0.9522061 0.730331,-1.2172182 0.08851,-0.088508 2.620849,-1.92343281 2.840176,-1.70410551 0.299345,0.29934461 0.325096,1.48334731 0.405739,1.86640111 0.789073,3.7480943 0.640631,5.8341262 -0.973774,9.3320061 -0.269428,0.583761 -0.648083,1.406196 -1.298366,1.622958" />
    <path
       style="fill:none;stroke:#000000;stroke-width:0.264583px;stroke-linecap:butt;stroke-linejoin:miter;stroke-opacity:1"
       d="m 24.506659,4.1385418 c 0.196456,-0.054656 0.218075,-0.8483381 0.143724,-0.5319759 -0.07111,0.3025882 -0.195975,0.5932303 -0.04546,0.9236261 0.225569,0.4951371 0.189441,1.0539121 0.148797,1.5804338 -0.0955,1.2371459 -0.363108,2.5120061 -1.068865,3.5496783 -0.117179,0.1722871 -0.248013,0.3357229 -0.395416,0.4831809"
       id="path12"
       inkscape:path-effect="#path-effect12"
       inkscape:original-d="m 24.506659,4.1385418 c 0.183608,0.053587 -0.110119,-0.568035 0.08115,-0.568035 0.191268,0 -0.09238,0.3770977 -0.08115,0.568035 0.01811,0.3078774 0.217832,0.5852827 0.243444,0.8926266 0.129673,1.5560688 -0.320559,3.9722139 -1.460662,5.1123166" />
    <path
       style="fill:none;stroke:#000000;stroke-width:0.264583px;stroke-linecap:butt;stroke-linejoin:miter;stroke-opacity:1"
       d="m 24.506659,17.60909 c -1.082694,2.876866 -0.890116,5.990736 -1.106935,9.002828 -0.101254,1.406635 -0.299826,2.816657 -0.220158,4.233269 0.04369,0.776905 0.388203,1.459512 0.596763,2.181999"
       id="path13"
       inkscape:path-effect="#path-effect13"
       inkscape:original-d="m 24.506659,17.60909 c -0.906373,2.363537 -0.79976,4.971398 -0.973774,7.465605 -0.112725,1.61573 -0.351654,3.327468 -0.405739,4.95002 -0.0209,0.627055 0.126048,1.25008 0.243443,1.866403 0.07717,0.405127 0.40574,0.733491 0.40574,1.136068" />
    <path
       style="fill:none;stroke:#000000;stroke-width:0.264583px;stroke-linecap:butt;stroke-linejoin:miter;stroke-opacity:1"
       d="m 16.554167,23.045998 c -0.867624,1.088948 -1.394405,2.408426 -1.821711,3.718131 -0.571194,1.750722 -1.119531,3.572938 -1.033078,5.426753 0.01973,0.422955 0.07129,0.856572 0.258057,1.242045"
       id="path14"
       inkscape:path-effect="#path-effect14"
       inkscape:original-d="m 16.554167,23.045998 c -1.523959,1.747413 -3.598375,8.383641 -2.596732,10.386929" />
    <path
       style="fill:none;stroke:#000000;stroke-width:0.264583px;stroke-linecap:butt;stroke-linejoin:miter;stroke-opacity:1"
       d="m 25.23699,11.928738 c -0.642143,3.075838 -2.513605,5.694909 -3.798223,8.546935 -0.325726,0.723156 -0.208465,-0.284775 -0.150554,0.336779 0.146342,1.57068 -0.218118,3.148875 -0.05899,4.722134 0.04063,0.401672 -0.663123,1.68296 0.205941,0.93832 1.116771,-0.956882 1.397142,-2.695988 2.640773,-3.491317 0.07182,-0.04593 -0.115236,1.090614 -0.274838,1.531894 -0.738548,2.041991 -0.495324,4.696679 -2.13462,6.160419 -0.373401,0.333412 0.102287,-0.185845 0.139312,0.52274 0.06507,1.245219 -0.05398,2.506043 -0.231387,3.740492 0,0 -0.07022,0.199899 -0.07022,0.199899"
       id="path15"
       inkscape:path-effect="#path-effect15"
       inkscape:original-d="m 25.23699,11.928738 c -0.554541,2.693149 -1.666334,5.103463 -3.083619,7.465605 -0.260087,0.433478 -0.633407,1.039146 -0.973774,1.379514 -0.108198,0.108197 -0.09467,-0.148771 -0.08115,-0.162296 0.181452,-0.181452 0.243443,0.473719 0.243443,0.730331 0,1.03333 0.147996,2.04765 0,3.08362 -0.10831,0.75817 -0.08394,1.469031 -0.324591,2.190992 -0.01711,0.05132 -0.03825,0.124042 0,0.162295 0.06896,0.06896 0.167287,-0.10137 0.243443,-0.162295 0.92267,-0.738135 1.980262,-1.931826 2.515585,-3.002471 0.05769,-0.115391 0.285216,-0.730331 0.405739,-0.730331 0.03825,0 -0.06404,0.04693 -0.08115,0.08115 -0.05598,0.11195 -0.05896,0.516085 -0.08115,0.649183 -0.01334,0.08004 0,0.162296 0,0.243443 -0.108197,0.324592 -0.216394,0.649183 -0.324591,0.973775 -0.54067,1.62201 -0.927431,3.582157 -1.622958,5.112316 -0.11524,0.253527 -0.251261,0.498613 -0.405739,0.730333 -0.04244,0.06366 -0.162296,0.08579 -0.162296,0.162295 0,0.1109 0.173115,-0.162295 0.08115,-0.162295 -0.03842,0 0.205306,0.305945 0.243444,0.649181 0.04938,0.444418 -0.135654,3.625011 -0.324592,3.81395" />
    <path
       style="fill:none;stroke:#000000;stroke-width:0.264583px;stroke-linecap:butt;stroke-linejoin:miter;stroke-opacity:1"
       d="m 25.723878,10.873816 c 0.755025,-0.01372 1.054548,1.289183 1.238467,1.952341 0.796853,2.873225 0.582254,5.892224 0.52321,8.834844 -0.0612,3.050188 -0.564516,6.067027 -0.832776,9.104806 -0.101852,1.153371 0.203616,2.482765 -0.523162,3.478597"
       id="path16"
       inkscape:path-effect="#path-effect16"
       inkscape:original-d="m 25.723878,10.873816 c 0.03894,-0.09579 0.271273,-0.268932 0.730331,0.649183 1.202898,2.405798 1.054922,5.597798 1.054922,8.195936 0,3.348038 -0.212699,7.337079 -0.81148,10.630371 -0.176987,0.973437 0.171927,3.15514 -0.568034,3.895098" />
    <path
       style="fill:none;stroke:#000000;stroke-width:0.264583px;stroke-linecap:butt;stroke-linejoin:miter;stroke-opacity:1"
       d="M 4.7877248,12.415625 C 5.7535447,8.7556822 7.8430011,5.2376152 10.965796,3.1253568 c 2.017287,-1.3644935 4.555619,-2.39547885 6.973967,-1.8738191 1.232269,0.2658115 2.482092,0.5673257 3.61093,1.1324094 1.287691,0.6446037 0.08114,1.6048545 0.126525,2.6279525 0.05987,1.3496537 -1.475671,1.104284 -2.285325,1.7188167 -1.070633,0.8126176 -3.002727,1.5503295 -2.817957,2.8937711 0.1676,1.2186076 -1.26151,1.2349806 -2.113528,1.3182726 -2.407824,0.235387 -4.6090423,1.723952 -7.0115614,1.667391 -0.9369929,-0.02206 -1.4731297,0.581176 -2.0930865,1.266136 -0.3793139,0.419085 -0.4812656,1.11462 -0.4730324,0.107893 0.00906,-1.107454 -0.2081884,-1.939597 0.4730324,-2.948069"
       id="path17"
       inkscape:path-effect="#path-effect17"
       inkscape:original-d="m 4.7877248,12.415625 c 0.8743521,-3.3931877 2.927745,-6.4326908 5.5180562,-8.7639705 1.8367,-1.65303 5.370903,-2.90894197 7.871344,-2.3532884 1.062864,0.2361919 2.16782,0.5749955 3.164767,0.9737745 0.593663,0.2374652 0.892627,1.0211866 0.892627,0.8926266 0,-0.028209 -0.27359,0.4150312 -0.324591,0.5680353 -0.129334,0.3879998 -0.251106,1.874063 -0.486888,2.1098449 -0.258807,0.2588069 -1.01366,0.3039599 -1.379514,0.4868873 -1.044998,0.5224991 -2.813744,2.1739886 -3.408211,3.1647672 -0.195525,0.3258748 -0.120085,0.8504161 -0.162295,0.8926261 -0.406998,0.406998 -2.964811,0.674111 -3.651655,0.811479 -1.756226,0.351245 -3.4409753,0.990072 -5.1934644,1.379514 -0.4018875,0.08931 -1.471146,0.137448 -1.7041055,0.486888 -0.167844,0.251766 -0.3551259,0.598569 -0.568035,0.811478 -0.095182,0.09518 -0.605381,0.730331 -0.5680353,0.730331 0.026758,0 0.1724845,-1.227046 0.1622959,-1.298366 -0.042769,-0.29938 -0.1956927,-0.592056 -0.1622959,-0.892627 0.040914,-0.368224 0.5680353,-1.140883 0.5680353,-1.379514" />
  </g>
</svg>
